<svg width="221" height="139" viewBox="0 0 221 139" fill="none" xmlns="http://www.w3.org/2000/svg">
<g clip-path="url(#clip0_1476_11621)">
<path d="M170.665 124.383C171.557 124.006 172.191 123.085 172.195 121.999C172.201 120.575 171.127 119.417 169.794 119.411C168.465 119.404 167.381 120.552 167.374 121.976C167.371 123.072 168.008 124.006 168.911 124.383C165.204 124.944 165.372 128.982 165.372 128.982L174.139 129.02C174.142 129.024 174.343 124.94 170.665 124.383Z" fill="#F59E0B" fill-opacity="0.2"/>
<path d="M15.2404 32.9613C15.9101 32.6792 16.3857 31.9884 16.3889 31.1743C16.3922 30.1073 15.5866 29.2381 14.5902 29.2316C13.5905 29.2283 12.7785 30.0878 12.7752 31.1548C12.772 31.9786 13.2508 32.6759 13.927 32.9581C11.1447 33.3797 11.2709 36.4089 11.2709 36.4089L17.8512 36.4381C17.848 36.4446 18 33.3797 15.2404 32.9613Z" fill="#F59E0B" fill-opacity="0.2"/>
<path d="M171.609 22.4888C171.709 26.9353 168.193 30.6229 163.757 30.7202C159.322 30.8208 155.644 27.2953 155.547 22.8488C155.446 18.4023 158.963 14.7147 163.398 14.6174C167.834 14.5169 171.509 18.0423 171.609 22.4888Z" fill="#F59E0B"/>
<path d="M161.881 20.5202C161.584 20.131 161.017 20.1212 160.642 20.4066C160.267 20.6921 160.095 21.0261 160.027 21.5321C159.937 21.0294 159.72 20.705 159.329 20.4358C158.937 20.1666 158.368 20.2023 158.086 20.6045C157.921 20.8412 157.876 21.1623 157.921 21.4575C157.967 21.7526 158.057 22.0607 158.245 22.278C158.908 23.0499 159.264 23.1829 160.105 23.7245C160.917 23.1472 161.176 23.0013 161.8 22.2002C161.975 21.9764 162.053 21.665 162.085 21.3667C162.111 21.0683 162.053 20.7472 161.881 20.5202Z" fill="#DC3545"/>
<path d="M168.972 20.3612C168.675 19.972 168.109 19.9623 167.733 20.2477C167.358 20.5331 167.187 20.8672 167.119 21.3731C167.028 20.8704 166.811 20.5461 166.42 20.2769C166.029 20.0077 165.459 20.0434 165.178 20.4456C165.013 20.6823 164.967 21.0034 165.013 21.2985C165.058 21.5937 165.149 21.9018 165.336 22.1191C165.999 22.891 166.355 23.024 167.196 23.5656C168.008 22.9883 168.267 22.8423 168.892 22.0412C169.066 21.8175 169.144 21.5061 169.176 21.2077C169.205 20.9093 169.147 20.5883 168.972 20.3612Z" fill="#DC3545"/>
<path d="M166.277 24.5029C166.184 25.8229 164.967 26.9613 163.647 26.9678C162.327 26.9742 161.101 25.8488 160.991 24.5321L166.277 24.5029Z" fill="white"/>
<path d="M208.765 112.703C209.487 108.206 206.435 103.973 201.949 103.249C197.464 102.526 193.242 105.584 192.52 110.082C191.798 114.579 194.849 118.811 199.335 119.535C203.821 120.259 208.043 117.2 208.765 112.703Z" fill="#F59E0B"/>
<path d="M197.918 109.032C198.228 109.013 198.507 109.363 198.532 109.817C198.562 110.268 198.329 110.651 198.018 110.67C197.704 110.689 197.429 110.339 197.403 109.885C197.374 109.431 197.604 109.052 197.918 109.032Z" fill="#212B36"/>
<path d="M198.684 106.957C198.665 107.077 197.992 107.038 197.241 107.307C196.484 107.56 195.977 108.004 195.889 107.923C195.799 107.861 196.235 107.213 197.106 106.914C197.973 106.613 198.717 106.853 198.684 106.957Z" fill="#212B36"/>
<path d="M204.65 110.32C204.563 110.394 204.119 109.914 203.411 109.843C202.702 109.762 202.169 110.135 202.097 110.044C202.062 110.005 202.149 109.846 202.385 109.684C202.615 109.525 203.01 109.382 203.456 109.431C203.903 109.48 204.255 109.7 204.449 109.908C204.64 110.112 204.692 110.287 204.65 110.32Z" fill="#212B36"/>
<path d="M205.355 108.941C205.29 109.045 204.624 108.692 203.734 108.666C202.845 108.62 202.152 108.919 202.097 108.808C202.029 108.724 202.731 108.205 203.75 108.251C204.773 108.289 205.43 108.86 205.355 108.941Z" fill="#212B36"/>
<path d="M204.773 111.234C204.808 111.231 204.818 111.919 204.258 112.82C203.728 113.699 202.489 114.766 200.822 114.831C199.153 114.87 197.853 113.884 197.267 113.038C196.649 112.172 196.617 111.484 196.652 111.487C196.723 111.461 196.863 112.097 197.497 112.856C198.102 113.602 199.321 114.452 200.81 114.416C202.294 114.358 203.462 113.437 204.019 112.652C204.601 111.857 204.698 111.212 204.773 111.234Z" fill="#212B36"/>
<path d="M15.499 67.0724C17.6394 63.093 16.1565 58.1276 12.1871 55.982C8.21765 53.8363 3.26471 55.3228 1.1244 59.3022C-1.01591 63.2816 0.4669 68.2469 4.43635 70.3926C8.4058 72.5383 13.3587 71.0518 15.499 67.0724Z" fill="#F59E0B"/>
<path d="M5.49285 61.1227C5.80343 61.0967 6.08165 61.4405 6.12047 61.8881C6.15606 62.3356 5.93607 62.7183 5.62549 62.7443C5.31492 62.7702 5.03669 62.4264 4.99787 61.9789C4.96228 61.5313 5.18551 61.1486 5.49285 61.1227Z" fill="black"/>
<path d="M6.21138 59.0502C6.20491 59.1215 5.52229 59.0567 4.75556 59.3453C3.98559 59.6242 3.50678 60.1172 3.45826 60.0686C3.40649 60.0394 3.84001 59.4297 4.67468 59.1248C5.50935 58.8134 6.23403 58.9918 6.21138 59.0502Z" fill="black"/>
<path d="M10.6853 61.0156C10.3747 61.0026 10.1094 61.3561 10.09 61.807C10.0706 62.2545 10.3067 62.6307 10.6173 62.6437C10.9279 62.6567 11.1932 62.3032 11.2126 61.8524C11.2352 61.4016 10.9958 61.0286 10.6853 61.0156Z" fill="black"/>
<path d="M9.88285 58.9723C9.8602 58.9172 10.5784 58.7064 11.4195 58.9853C12.2639 59.2545 12.7266 59.8448 12.6748 59.8772C12.6263 59.9291 12.1281 59.4556 11.3484 59.2091C10.5719 58.9496 9.89255 59.0437 9.88285 58.9723Z" fill="black"/>
<path d="M12.3423 63.101C12.3552 63.1043 12.3488 63.26 12.2841 63.5389C12.2226 63.8178 12.0803 64.2135 11.8085 64.6513C11.54 65.0892 11.1259 65.5562 10.563 65.9421C10.0033 66.3281 9.28184 66.6167 8.48599 66.6621C7.69337 66.6978 6.94282 66.487 6.34755 66.1594C5.7458 65.8351 5.28641 65.4102 4.97583 65.0048C4.66202 64.5962 4.47762 64.22 4.39027 63.9508C4.29968 63.6816 4.27704 63.5227 4.28674 63.5194C4.33527 63.4967 4.46144 64.1389 5.10524 64.9011C5.42229 65.2805 5.87198 65.6697 6.45107 65.9713C7.02369 66.2697 7.7322 66.4611 8.47952 66.4286C9.22361 66.3832 9.90623 66.1205 10.4465 65.7605C10.99 65.4038 11.3976 64.9659 11.6726 64.5573C12.2291 63.7335 12.2905 63.0848 12.3423 63.101Z" fill="black"/>
<path d="M78.7437 74.1379C78.3393 73.6546 77.6114 73.6741 77.1423 74.06C76.6764 74.4492 76.4726 74.8871 76.4144 75.5422C76.272 74.9033 75.9744 74.4946 75.4568 74.1736C74.9392 73.8492 74.208 73.9303 73.8683 74.4622C73.671 74.7736 73.6289 75.1919 73.7066 75.5682C73.781 75.9476 73.9136 76.3336 74.166 76.6028C75.0621 77.5595 75.5247 77.7087 76.6344 78.3574C77.6438 77.5693 77.9705 77.3682 78.7275 76.3044C78.9411 76.006 79.0219 75.6038 79.0446 75.2179C79.0705 74.8287 78.9799 74.42 78.7437 74.1379Z" fill="#F59E0B" fill-opacity="0.2"/>
<path d="M196.759 11.4163C196.354 10.933 195.627 10.9525 195.157 11.3385C194.692 11.7276 194.488 12.1655 194.43 12.8206C194.287 12.1817 193.99 11.7731 193.472 11.452C192.954 11.1276 192.223 11.2087 191.883 11.7406C191.686 12.052 191.644 12.4704 191.722 12.8466C191.796 13.226 191.929 13.612 192.181 13.8812C193.077 14.8379 193.54 14.9871 194.65 15.6358C195.659 14.8477 195.986 14.6466 196.743 13.5828C196.956 13.2844 197.037 12.8822 197.06 12.4963C197.089 12.1071 196.995 11.6985 196.759 11.4163Z" fill="#F59E0B" fill-opacity="0.2"/>
<path d="M164.86 101.959C164.456 101.475 163.728 101.495 163.259 101.881C162.793 102.27 162.589 102.708 162.531 103.363C162.389 102.724 162.091 102.315 161.573 101.994C161.056 101.67 160.325 101.751 159.985 102.283C159.788 102.594 159.746 103.013 159.823 103.389C159.898 103.768 160.03 104.154 160.283 104.424C161.179 105.38 161.641 105.529 162.751 106.178C163.76 105.39 164.087 105.189 164.844 104.125C165.058 103.827 165.139 103.425 165.161 103.039C165.187 102.649 165.097 102.241 164.86 101.959Z" fill="#F59E0B" fill-opacity="0.2"/>
<path d="M187.649 44.2252C179.467 44.2252 172.23 48.2663 167.801 54.4577L159.128 55.6902L163.994 62.6405C163.502 64.5767 163.24 66.6038 163.24 68.6957C163.24 82.2104 174.168 93.1661 187.649 93.1661C201.13 93.1661 212.058 82.2104 212.058 68.6957C212.058 55.181 201.13 44.2252 187.649 44.2252Z" fill="#F59E0B"/>
<path d="M183.168 34.0543C186.746 29.3321 190.515 30.0002 193.132 31.1386C195.75 32.2803 197.506 35.1538 197.332 38.0111C197.286 38.7668 197.124 39.5582 197.432 40.249C197.924 41.3614 199.357 41.6728 200.185 42.5582C201.317 43.7712 201.068 45.6912 200.683 47.3063C200.301 48.9247 199.897 50.7701 200.845 52.1323C201.715 53.381 203.372 53.715 204.737 54.3799C206.542 55.2588 207.991 56.8967 208.516 58.8394C209.04 60.7821 208.577 62.9908 207.221 64.4729C205.895 65.9227 203.899 66.5649 201.958 66.8535C196.306 67.687 190.318 65.8611 186.089 62.0081C181.861 58.1551 179.473 52.3561 179.765 46.635" fill="#212B36"/>
<path d="M205.184 64.9594C205.174 64.9497 205.307 64.8427 205.507 64.5962C205.708 64.353 205.979 63.9573 206.144 63.3767C206.309 62.7994 206.345 62.0438 206.164 61.207C205.996 60.3702 205.565 59.4621 204.834 58.6708C204.469 58.2783 204.038 57.9118 203.54 57.6005C203.045 57.2859 202.482 57.0459 201.893 56.8026C201.305 56.5594 200.68 56.3129 200.091 55.9464C199.499 55.5799 198.969 55.0837 198.532 54.4967C197.649 53.3194 197.186 51.7821 197.151 50.1993C197.131 49.408 197.206 48.5972 197.355 47.7961C197.5 46.995 197.704 46.1971 197.859 45.3863C197.966 44.8123 198.063 44.2317 198.057 43.6739C198.044 43.1096 197.888 42.5679 197.681 42.049C197.474 41.5268 197.228 41.0209 197.034 40.4955C196.843 39.9571 196.759 39.409 196.698 38.8706C196.633 38.329 196.633 37.7938 196.572 37.2879C196.52 36.7754 196.416 36.2792 196.284 35.7992C196.018 34.8457 195.617 33.9538 195.083 33.237L195.077 33.2273V33.2241C194.184 31.8068 192.709 31.0219 191.382 30.8338C190.033 30.6327 188.846 31.0381 188.024 31.5376C187.186 32.0435 186.678 32.6435 186.381 33.0684C186.083 33.4997 185.973 33.7592 185.957 33.7527C185.957 33.7527 186.044 33.4835 186.329 33.036C186.617 32.5949 187.118 31.9722 187.963 31.4403C188.791 30.9149 190.011 30.4803 191.405 30.6749C192.777 30.8532 194.307 31.6478 195.248 33.1203L195.242 33.1106C195.808 33.8695 196.216 34.7679 196.494 35.7441C196.63 36.2338 196.74 36.7398 196.795 37.2652C196.86 37.7938 196.86 38.3192 196.927 38.8479C196.989 39.3765 197.076 39.9149 197.257 40.4209C197.448 40.9301 197.691 41.436 197.905 41.9679C198.118 42.4966 198.283 43.0739 198.299 43.6739C198.306 44.2739 198.205 44.8544 198.099 45.4382C197.943 46.2588 197.74 47.0566 197.594 47.848C197.445 48.6361 197.371 49.4274 197.39 50.2026C197.422 51.7496 197.869 53.2383 198.717 54.3767C199.134 54.9475 199.645 55.4242 200.211 55.781C200.777 56.1378 201.392 56.3843 201.981 56.6307C202.57 56.8772 203.145 57.127 203.65 57.4578C204.158 57.7789 204.598 58.1616 204.97 58.5702C205.714 59.3875 206.148 60.3313 206.306 61.1908C206.478 62.0502 206.429 62.8254 206.245 63.4157C206.064 64.0092 205.769 64.4049 205.556 64.6416C205.329 64.8686 205.184 64.9594 205.184 64.9594Z" fill="#455A64"/>
<path d="M192.101 59.4167C192.072 59.381 192.437 59.0113 192.922 58.5864C193.408 58.1648 193.822 57.8502 193.854 57.8858C193.887 57.9215 193.518 58.2913 193.032 58.7161C192.547 59.1377 192.13 59.4491 192.101 59.4167Z" fill="#F1F5F9"/>
<path d="M190.926 56.6113L180.14 57.928C180.14 57.928 171.463 59.5107 169.716 66.0265C168.513 70.5249 166.019 78.9087 164.589 83.6634C163.974 85.7164 164.899 87.9153 166.795 88.9045C169.082 90.098 171.897 89.0958 172.926 86.725L177.643 75.8438C177.643 75.8438 179.305 79.645 179.208 81.4417C179.111 83.2385 175.368 89.845 175.368 89.845C183.333 94.4245 191.431 93.8472 197.727 90.9834L197.426 73.7876C197.426 73.7876 200.389 89.1315 206.394 87.9639C211.427 86.9845 208.111 77.1509 206.394 73.3887C204.2 68.5919 201.34 61.7486 199.541 60.0978C194.718 55.6772 190.926 56.6113 190.926 56.6113Z" fill="#624BFF"/>
<g opacity="0.2">
<path d="M180.968 58.7972C180.315 59.8188 179.419 60.6523 178.509 61.4534C177.898 61.9918 177.261 62.5334 176.5 62.8253C175.74 63.1205 174.825 63.1302 174.161 62.6534C173.501 62.1767 173.239 61.1388 173.754 60.5032C174.093 60.0848 174.656 59.9323 175.177 59.8026C176.924 59.3713 178.671 58.9399 180.418 58.5085" fill="black"/>
</g>
<path d="M167.215 78.8374C167.186 78.8082 167.778 78.2925 168.7 78.0622C169.619 77.8222 170.389 77.9876 170.373 78.0266C170.37 78.0784 169.619 77.9941 168.742 78.2244C167.859 78.4482 167.244 78.8828 167.215 78.8374Z" fill="#212B36"/>
<path d="M168.639 77.3487C168.617 77.313 169.118 77.0568 169.788 77.1249C170.458 77.1865 170.904 77.5336 170.872 77.566C170.846 77.6114 170.393 77.3487 169.772 77.2936C169.151 77.2255 168.656 77.3974 168.639 77.3487Z" fill="#212B36"/>
<g opacity="0.2">
<path d="M170.784 78.1498C169.845 77.6828 168.661 77.7639 167.798 78.3574C167.616 78.4806 167.39 78.6298 167.199 78.5195C167.018 78.4125 167.028 78.1401 167.128 77.9552C167.367 77.5141 167.914 77.3487 168.409 77.2968C169.305 77.2028 170.227 77.352 171.049 77.7217" fill="black"/>
</g>
<g opacity="0.2">
<path d="M188.312 70.8817C187.743 72.0298 186.112 72.7465 185.345 73.9984C184.698 75.0557 184.459 76.3012 184.071 77.4752C183 80.7152 180.697 83.5272 177.736 85.2137C178.325 84.0915 178.807 82.9174 179.17 81.6947C179.328 80.5725 178.852 79.5152 178.852 79.5152C179.221 78.3736 180.842 76.8006 181.586 75.8601C182.476 74.7314 183.372 73.5963 184.469 72.6687C185.565 71.7411 186.885 71.0244 188.312 70.8817Z" fill="black"/>
</g>
<path d="M192.903 82.9109C192.864 82.8882 193.255 82.126 193.783 81.2114C194.31 80.2968 194.769 79.5736 194.808 79.5963C194.847 79.619 194.455 80.3812 193.928 81.2958C193.401 82.2136 192.941 82.9369 192.903 82.9109Z" fill="#F1F5F9"/>
<path d="M201.647 78.3314C201.67 78.3347 201.66 78.6882 201.628 79.259C201.599 79.8298 201.534 80.6147 201.57 81.4807C201.631 83.2223 202.304 84.5099 202.239 84.5293C202.23 84.5358 202.184 84.458 202.11 84.3153C202.036 84.1726 201.942 83.9585 201.838 83.6926C201.634 83.1542 201.437 82.3726 201.402 81.4904C201.366 80.6115 201.45 79.8201 201.508 79.2525C201.573 78.6785 201.625 78.3282 201.647 78.3314Z" fill="#212B36"/>
<path d="M187.021 85.6385C187.053 85.6061 187.61 86.1445 188.169 86.9131C188.732 87.6818 189.072 88.3758 189.033 88.3953C188.991 88.418 188.587 87.7693 188.033 87.0104C187.48 86.2515 186.985 85.6709 187.021 85.6385Z" fill="#F1F5F9"/>
<path d="M192.515 86.8937C192.534 86.8515 193.071 87.0785 193.712 87.3964C194.352 87.7142 194.854 88.0093 194.834 88.0515C194.815 88.0937 194.278 87.8699 193.637 87.5488C192.997 87.2277 192.495 86.9358 192.515 86.8937Z" fill="#F1F5F9"/>
<path d="M188.901 81.6882C188.871 81.7239 188.406 81.3736 187.936 80.832C187.467 80.2904 187.189 79.7779 187.225 79.7552C187.267 79.7293 187.603 80.1931 188.063 80.7217C188.525 81.2536 188.933 81.6525 188.901 81.6882Z" fill="#F1F5F9"/>
<path d="M182.204 86.1315C182.175 86.0926 182.66 85.7001 183.194 85.1553C183.731 84.6136 184.113 84.1207 184.155 84.1499C184.19 84.1726 183.864 84.7174 183.314 85.2753C182.77 85.8331 182.23 86.1704 182.204 86.1315Z" fill="#F1F5F9"/>
<path d="M178.671 87.9477C178.703 87.912 179.133 88.2558 179.638 88.7131C180.14 89.1704 180.521 89.5693 180.492 89.605C180.46 89.6407 180.03 89.2969 179.525 88.8396C179.02 88.3823 178.639 87.9834 178.671 87.9477Z" fill="#F1F5F9"/>
<path d="M185.368 75.5065C185.342 75.4676 185.886 75.0881 186.578 74.66C187.27 74.2319 187.853 73.9173 187.879 73.9595C187.904 73.9984 187.361 74.3779 186.669 74.806C185.976 75.2341 185.394 75.5487 185.368 75.5065Z" fill="#F1F5F9"/>
<path d="M191.107 73.4892C191.149 73.4697 191.46 74.0276 191.803 74.7379C192.146 75.4481 192.388 76.0417 192.346 76.0611C192.304 76.0806 191.994 75.5227 191.651 74.8125C191.308 74.1022 191.065 73.5119 191.107 73.4892Z" fill="#F1F5F9"/>
<path d="M195.038 72.6362C194.999 72.6135 195.274 72.0751 195.653 71.4395C196.031 70.8005 196.371 70.3043 196.413 70.3303C196.452 70.353 196.177 70.8913 195.798 71.527C195.416 72.1627 195.077 72.6589 195.038 72.6362Z" fill="#F1F5F9"/>
<path d="M190.45 68.6503C190.473 68.6049 191.016 68.8449 191.722 69.0103C192.427 69.1789 193.019 69.2081 193.019 69.26C193.022 69.3022 192.411 69.3508 191.683 69.1757C190.955 69.0038 190.431 68.6859 190.45 68.6503Z" fill="#F1F5F9"/>
<path d="M193.155 64.1454C193.11 64.1486 193.032 63.6038 192.987 62.9259C192.938 62.2481 192.938 61.6967 192.984 61.6935C193.029 61.6902 193.107 62.2351 193.152 62.9129C193.201 63.5908 193.201 64.1421 193.155 64.1454Z" fill="#F1F5F9"/>
<path d="M199.185 73.1714C199.143 73.1552 199.337 72.5357 199.622 71.7865C199.907 71.0373 200.172 70.447 200.217 70.4632C200.259 70.4795 200.065 71.0989 199.781 71.8481C199.496 72.5941 199.227 73.1876 199.185 73.1714Z" fill="#F1F5F9"/>
<path d="M200.049 76.4535C200.085 76.4308 200.428 76.9238 200.674 77.6179C200.923 78.3119 200.968 78.9119 200.926 78.9152C200.877 78.9217 200.758 78.3509 200.515 77.673C200.279 76.9984 200.007 76.4795 200.049 76.4535Z" fill="#F1F5F9"/>
<path d="M180.127 64.5086C180.153 64.4697 180.651 64.7324 181.243 65.0989C181.835 65.4654 182.294 65.7929 182.268 65.8319C182.243 65.8708 181.744 65.6081 181.152 65.2416C180.564 64.8751 180.104 64.5475 180.127 64.5086Z" fill="#F1F5F9"/>
<path d="M176.999 69.8211C176.966 69.7854 177.413 69.3508 177.853 68.7281C178.296 68.1087 178.561 67.5443 178.607 67.5638C178.649 67.5768 178.448 68.1897 177.989 68.8287C177.539 69.4676 177.025 69.8568 176.999 69.8211Z" fill="#F1F5F9"/>
<path d="M172.343 70.0449C172.369 70.0092 172.909 70.3854 173.495 70.9497C174.081 71.5108 174.475 72.0395 174.443 72.0654C174.407 72.0979 173.958 71.6244 173.379 71.0698C172.799 70.5152 172.311 70.0838 172.343 70.0449Z" fill="#F1F5F9"/>
<path d="M173.459 65.4978C173.427 65.4654 173.935 64.9205 174.595 64.2816C175.255 63.6427 175.815 63.1529 175.847 63.1854C175.879 63.2178 175.371 63.7627 174.711 64.4048C174.052 65.0405 173.492 65.5335 173.459 65.4978Z" fill="#F1F5F9"/>
<path d="M170.576 74.1379C170.531 74.1508 170.308 73.5573 170.075 72.8114C169.842 72.0654 169.69 71.446 169.732 71.433C169.777 71.42 170.001 72.0135 170.234 72.7595C170.47 73.5087 170.622 74.1249 170.576 74.1379Z" fill="#F1F5F9"/>
<path d="M172.806 76.9174C172.761 76.9141 172.783 76.2298 172.861 75.3963C172.939 74.5595 173.039 73.8849 173.084 73.8882C173.129 73.8914 173.107 74.5725 173.029 75.4093C172.955 76.246 172.854 76.9206 172.806 76.9174Z" fill="#F1F5F9"/>
<path d="M188.923 64.1421C188.234 63.6524 187.374 63.4675 186.542 63.6297C185.759 63.7821 185.067 64.233 184.607 64.8849L181.793 68.8935L166.533 81.0947C164.161 82.9888 164.388 86.6699 166.969 88.2623C168.781 89.378 171.127 89.0277 172.537 87.4321L184.992 73.3271L186.6 72.0849L188.493 70.7098L188.923 66.5811C188.923 66.5811 190.059 67.087 190.948 67.4924C192.349 68.1379 192.815 66.967 192.815 66.967L188.923 64.1421Z" fill="#B78876"/>
<path d="M188.946 66.7951C188.926 66.8081 188.836 66.7011 188.684 66.5357C188.535 66.3735 188.315 66.153 188.011 66.0459C187.713 65.9454 187.403 66.0297 187.241 66.153C187.069 66.2762 187.034 66.4189 187.005 66.4092C186.988 66.4124 186.982 66.2373 187.163 66.0622C187.338 65.8935 187.697 65.7638 188.066 65.887C188.422 66.0135 188.645 66.2762 188.774 66.4611C188.91 66.6492 188.962 66.7822 188.946 66.7951Z" fill="#AA6550"/>
<path d="M186.944 67.8946C186.927 67.8816 186.982 67.7713 187.135 67.6513C187.283 67.5313 187.542 67.4081 187.846 67.4081C188.15 67.4081 188.406 67.5346 188.555 67.6578C188.707 67.7811 188.759 67.8913 188.742 67.9043C188.723 67.9205 188.639 67.8427 188.487 67.7584C188.335 67.6708 188.105 67.58 187.846 67.58C187.584 67.58 187.355 67.6675 187.202 67.7519C187.047 67.8362 186.963 67.914 186.944 67.8946Z" fill="#AA6550"/>
<path d="M199.975 63.3216L201.045 64.4827C201.045 64.4827 201.401 80.9293 202.026 83.1639C202.65 85.3985 206.306 89.151 208.266 86.112C210.227 83.0731 205.326 63.6783 205.326 63.6783C205.326 63.6783 203.989 59.2091 203.899 58.1356L199.975 63.3216Z" fill="#B78876"/>
<path d="M202.43 53.7993L202.01 65.1605C201.98 65.9713 201.537 66.7108 200.835 67.1162L197.422 69.0946C196.481 69.6395 195.3 68.9584 195.3 67.8686V57.3507C195.3 56.754 195.623 56.2026 196.144 55.914L201.253 53.0729C201.793 52.7712 202.456 53.1799 202.43 53.7993Z" fill="#455A64"/>
<path d="M198.506 56.7929C198.321 57.1691 198.477 57.6232 198.852 57.808C199.227 57.9929 199.68 57.8372 199.865 57.461C200.049 57.0848 199.894 56.6307 199.518 56.4459C199.143 56.261 198.69 56.4167 198.506 56.7929Z" fill="#F1F5F9"/>
<path d="M203.899 58.1388C203.899 58.1388 201.372 54.6296 200.809 54.6588C200.25 54.688 197.532 56.3161 197.652 56.6696C197.768 57.0232 198.331 57.2307 198.833 56.994C199.334 56.7572 200.221 55.8977 200.428 56.0761C200.635 56.2545 201.223 56.874 201.223 56.874C201.223 56.874 198.729 58.1518 198.538 58.648C198.344 59.1572 197.888 60.0394 198.48 60.3637C198.865 60.5745 199.483 60.3345 199.719 59.3291C199.719 59.3291 199.247 60.7789 199.978 61.1324C200.764 61.5151 201.003 60.7108 201.638 59.9194C202.171 59.2545 202.411 60.101 202.411 60.101L203.899 58.1388Z" fill="#B78876"/>
<path d="M201.987 58.168C201.984 58.194 201.806 58.1778 201.524 58.2134C201.246 58.2459 200.864 58.3464 200.505 58.5799C200.149 58.8134 199.903 59.1248 199.761 59.3648C199.616 59.608 199.561 59.7799 199.535 59.7702C199.515 59.7669 199.531 59.5788 199.658 59.3096C199.781 59.0405 200.03 58.6902 200.415 58.4372C200.8 58.1842 201.22 58.0967 201.515 58.0934C201.812 58.0902 201.99 58.1486 201.987 58.168Z" fill="#AA6550"/>
<path d="M180.699 35.0889L180.703 36.5516L180.609 58.4632C180.599 61.0059 182.77 63.0427 185.488 63.0329C188.231 63.0232 190.499 60.9345 190.551 58.3659C190.606 55.6675 190.716 52.8296 190.716 52.8296C190.716 52.8296 194.19 52.3139 194.989 47.7928C195.387 45.5452 195.339 41.8479 195.203 38.8219C195.08 36.1008 192.725 34.0284 190.014 34.2651L180.699 35.0889Z" fill="#B78876"/>
<path d="M194.139 41.5819C194.145 41.8901 193.89 42.1463 193.569 42.1592C193.249 42.1722 192.987 41.9322 192.981 41.6241C192.974 41.316 193.23 41.0598 193.55 41.0468C193.87 41.0338 194.136 41.2738 194.139 41.5819Z" fill="#212B36"/>
<path d="M194.368 40.7322C194.294 40.8068 193.861 40.4728 193.236 40.463C192.612 40.4436 192.149 40.7582 192.084 40.6803C192.052 40.6446 192.126 40.5117 192.33 40.369C192.528 40.2263 192.867 40.0933 193.256 40.0998C193.644 40.1095 193.967 40.2587 194.155 40.4079C194.343 40.5603 194.404 40.6998 194.368 40.7322Z" fill="#212B36"/>
<path d="M188.228 41.4782C188.235 41.7863 187.979 42.0425 187.659 42.0555C187.338 42.0685 187.076 41.8285 187.07 41.5203C187.063 41.2122 187.319 40.956 187.639 40.943C187.96 40.9301 188.225 41.1701 188.228 41.4782Z" fill="#212B36"/>
<path d="M188.231 40.7419C188.157 40.8165 187.723 40.4825 187.099 40.4727C186.474 40.4533 186.012 40.7679 185.944 40.69C185.911 40.6544 185.986 40.5214 186.19 40.3787C186.387 40.236 186.727 40.103 187.115 40.1095C187.503 40.1192 187.827 40.2684 188.014 40.4176C188.205 40.57 188.27 40.7062 188.231 40.7419Z" fill="#212B36"/>
<path d="M190.415 45.4187C190.412 45.3831 190.803 45.3214 191.431 45.2533C191.589 45.2404 191.741 45.2112 191.77 45.1009C191.809 44.9874 191.748 44.8122 191.673 44.6241C191.531 44.2349 191.382 43.8263 191.224 43.3982C190.599 41.6533 190.153 40.223 190.221 40.1971C190.292 40.1711 190.855 41.5657 191.476 43.3106C191.625 43.742 191.77 44.1506 191.906 44.5431C191.964 44.7247 192.065 44.9322 191.977 45.1722C191.932 45.2922 191.812 45.3766 191.712 45.4025C191.609 45.4317 191.521 45.4317 191.44 45.4349C190.809 45.4609 190.418 45.4544 190.415 45.4187Z" fill="#212B36"/>
<path d="M190.716 52.8328C190.716 52.8328 187.671 52.9756 184.688 51.1042C184.688 51.1042 186.102 54.2437 190.635 53.8999L190.716 52.8328Z" fill="#AA6550"/>
<path d="M190.124 46.9236C189.904 46.622 189.516 46.4533 189.124 46.4858C188.852 46.5117 188.577 46.635 188.409 46.8555C188.241 47.0728 188.202 47.3874 188.348 47.6015C188.513 47.8415 188.862 47.9031 189.163 47.822C189.464 47.7409 189.723 47.5496 189.969 47.3582C190.036 47.3063 190.108 47.2512 190.15 47.1766C190.192 47.102 190.205 47.0047 190.153 46.9431" fill="#AA6550"/>
<path d="M188.571 45.8209C188.671 45.8177 188.661 46.4955 189.234 46.9885C189.803 47.4815 190.528 47.4199 190.531 47.5139C190.541 47.5561 190.37 47.6436 190.062 47.6469C189.765 47.6534 189.328 47.5463 188.978 47.248C188.629 46.9463 188.483 46.5474 188.467 46.2685C188.445 45.9831 188.526 45.8144 188.571 45.8209Z" fill="#212B36"/>
<path d="M175.252 60.6394C178.979 60.9345 182.259 58.2686 182.816 54.5648C182.874 54.1788 182.939 53.8642 183.023 53.6566C183.547 52.3399 183.556 50.8512 183.194 49.4793C183.026 48.8436 182.786 48.1496 183.074 47.5593C183.285 47.1312 183.721 46.875 184.077 46.5636C184.883 45.8598 185.323 44.796 185.41 43.729C185.501 42.662 185.265 41.5884 184.893 40.583C184.689 40.0317 184.44 39.4252 184.647 38.8738C184.792 38.4846 185.142 38.2122 185.449 37.9333C186.103 37.343 186.649 36.636 187.057 35.8543C187.471 35.0597 187.74 34.0251 186.659 33.3927C186.433 33.2597 186.18 33.1819 185.921 33.1397C184.009 32.8413 181.732 33.1267 180.451 34.6349C179.406 35.8641 179.26 37.5992 179.157 39.2079C178.84 44.2836 170.461 53.7085 173.699 60.6589L175.252 60.6394Z" fill="#212B36"/>
<path d="M188.438 38.29C188.373 38.4587 187.752 38.3679 187.018 38.4425C186.284 38.5041 185.688 38.7084 185.594 38.5527C185.552 38.4782 185.659 38.3225 185.899 38.1603C186.138 38.0014 186.52 37.849 186.96 37.81C187.4 37.7711 187.801 37.8457 188.066 37.9592C188.331 38.076 188.464 38.2122 188.438 38.29Z" fill="#212B36"/>
<path d="M194.171 38.9192C194.058 39.0587 193.631 38.903 193.113 38.8868C192.596 38.8511 192.156 38.9646 192.059 38.8154C192.016 38.7441 192.088 38.6014 192.282 38.4717C192.473 38.3419 192.79 38.2381 193.146 38.2544C193.501 38.2706 193.806 38.4068 193.983 38.556C194.165 38.7019 194.223 38.8511 194.171 38.9192Z" fill="#212B36"/>
<path d="M211.437 42.0522C211.437 42.4025 211.152 42.6879 210.803 42.6879C210.454 42.6879 210.169 42.4025 210.169 42.0522C210.169 41.702 210.454 41.4166 210.803 41.4166C211.152 41.4166 211.437 41.702 211.437 42.0522Z" fill="#455A64"/>
<path d="M213.34 42.6879C213.69 42.6879 213.974 42.4033 213.974 42.0522C213.974 41.7012 213.69 41.4166 213.34 41.4166C212.989 41.4166 212.706 41.7012 212.706 42.0522C212.706 42.4033 212.989 42.6879 213.34 42.6879Z" fill="#455A64"/>
<path d="M216.504 41.7344C216.678 42.0393 216.575 42.4285 216.271 42.6036C215.967 42.7787 215.578 42.6749 215.404 42.3701C215.229 42.0652 215.333 41.676 215.637 41.5009C215.941 41.329 216.329 41.4328 216.504 41.7344Z" fill="#455A64"/>
<path d="M213.379 34.6284C213.379 34.6252 213.421 34.6252 213.508 34.6252C213.602 34.6284 213.725 34.6316 213.883 34.6349C213.967 34.6381 214.058 34.6381 214.161 34.6479C214.265 34.6608 214.375 34.677 214.495 34.6933C214.614 34.7095 214.744 34.7289 214.883 34.7484C215.019 34.7808 215.164 34.8165 215.316 34.8554C215.925 35.0111 216.662 35.2803 217.416 35.7733C218.17 36.2598 218.953 36.9506 219.587 37.8944C220.211 38.8382 220.693 40.0252 220.819 41.3582C220.832 41.6922 220.871 42.0328 220.839 42.3766C220.826 42.5485 220.829 42.7236 220.807 42.8987C220.781 43.0739 220.755 43.2458 220.729 43.4241C220.587 44.1182 220.379 44.8317 220.024 45.4966C219.674 46.1615 219.225 46.7939 218.675 47.3582C218.115 47.9096 217.458 48.3896 216.73 48.7593C216.002 49.1323 215.197 49.3885 214.359 49.4891C214.152 49.5312 213.938 49.5312 213.728 49.5442C213.514 49.5572 213.304 49.5669 213.087 49.5572C212.66 49.5409 212.23 49.4858 211.806 49.395C210.884 49.1972 210.017 48.8242 209.257 48.3182L209.335 48.3247C208.451 48.6815 207.584 49.0285 206.737 49.3691L206.581 49.4307L206.627 49.2718C206.889 48.3182 207.144 47.3874 207.39 46.489L207.403 46.5571C206.675 45.5874 206.209 44.4782 206.019 43.3787C205.922 42.8274 205.883 42.2793 205.918 41.7506C205.928 41.4847 205.941 41.222 205.993 40.969C206.012 40.8425 206.032 40.7128 206.051 40.5895C206.074 40.463 206.112 40.343 206.141 40.2198C206.643 38.2609 207.846 36.8144 209.037 35.9873C209.632 35.5657 210.221 35.2641 210.761 35.076C210.894 35.0273 211.027 34.9819 211.15 34.9365C211.279 34.9041 211.402 34.8716 211.518 34.8425C211.635 34.8133 211.748 34.7841 211.855 34.7581C211.962 34.7387 212.068 34.7257 212.165 34.7095C212.363 34.6835 212.534 34.6511 212.686 34.6446C212.835 34.6381 212.961 34.6349 213.068 34.6316C213.165 34.6284 213.243 34.6284 213.301 34.6252C213.353 34.6252 213.379 34.6252 213.379 34.6284C213.379 34.6316 213.353 34.6349 213.301 34.6381C213.243 34.6414 213.165 34.6479 213.068 34.6576C212.964 34.6641 212.838 34.6738 212.689 34.6835C212.541 34.6965 212.369 34.7322 212.175 34.7614C211.412 34.9008 210.266 35.2057 209.095 36.0652C207.927 36.8922 206.753 38.3257 206.271 40.2522C206.242 40.3722 206.206 40.4922 206.184 40.6155C206.164 40.7387 206.148 40.8652 206.129 40.9884C206.08 41.2382 206.07 41.4944 206.061 41.7571C206.028 42.276 206.07 42.8144 206.167 43.3528C206.358 44.4296 206.818 45.5128 207.533 46.4631L207.555 46.4955L207.546 46.5344C207.3 47.4328 207.047 48.3636 206.789 49.3172L206.679 49.2199C207.523 48.8793 208.39 48.529 209.273 48.1723L209.315 48.1561L209.351 48.1788C210.095 48.6685 210.942 49.0382 211.842 49.2296C212.256 49.3172 212.677 49.3723 213.094 49.3885C213.304 49.3982 213.511 49.3918 213.718 49.3788C213.925 49.3658 214.132 49.3658 214.336 49.3269C215.155 49.2296 215.944 48.9799 216.656 48.6166C217.371 48.2566 218.011 47.7896 218.561 47.2512C219.102 46.6998 219.545 46.0804 219.888 45.4317C220.24 44.7831 220.444 44.0858 220.587 43.4047C220.612 43.2328 220.638 43.0609 220.664 42.8922C220.69 42.7236 220.687 42.5517 220.7 42.383C220.732 42.0457 220.693 41.7117 220.684 41.3841C220.564 40.0738 220.098 38.9063 219.49 37.9722C218.872 37.0414 218.105 36.3506 217.364 35.8641C216.623 35.3711 215.899 35.0954 215.297 34.93C215.145 34.8911 215.003 34.8522 214.87 34.8165C214.734 34.7938 214.605 34.7743 214.485 34.7549C214.365 34.7354 214.255 34.716 214.155 34.6997C214.055 34.69 213.961 34.6868 213.88 34.6803C213.721 34.6673 213.599 34.6608 213.505 34.6543C213.424 34.6381 213.379 34.6316 213.379 34.6284Z" fill="#455A64"/>
<path d="M69.1378 94.0094L57.7145 95.9391C53.4376 92.2418 47.8763 90.0007 41.7877 90.0007C28.3068 90.0007 17.3784 100.956 17.3784 114.471C17.3784 127.986 28.3068 138.942 41.7877 138.942C55.2687 138.942 66.1971 127.986 66.1971 114.471C66.1971 110.686 65.3397 107.102 63.8063 103.901L69.1378 94.0094Z" fill="#F59E0B"/>
<path d="M19.0811 88.7812C19.0811 89.1315 19.3658 89.4169 19.7151 89.4169C20.0645 89.4169 20.3492 89.1315 20.3492 88.7812C20.3492 88.4309 20.0645 88.1455 19.7151 88.1455C19.3625 88.1455 19.0811 88.4309 19.0811 88.7812Z" fill="#212B36"/>
<path d="M16.541 88.7812C16.541 89.1315 16.8257 89.4169 17.1751 89.4169C17.5245 89.4169 17.8092 89.1315 17.8092 88.7812C17.8092 88.4309 17.5245 88.1455 17.1751 88.1455C16.8257 88.1455 16.541 88.4309 16.541 88.7812Z" fill="#212B36"/>
<path d="M14.0111 88.4634C13.8364 88.7682 13.9399 89.1574 14.244 89.3326C14.5482 89.5077 14.9364 89.4039 15.1111 89.0991C15.2858 88.7942 15.1822 88.405 14.8781 88.2299C14.574 88.0547 14.1858 88.1585 14.0111 88.4634Z" fill="#212B36"/>
<path d="M17.1359 81.3574C17.1359 81.3606 17.0939 81.3639 17.0065 81.3736C16.9127 81.3801 16.7898 81.3898 16.6313 81.3995C16.5504 81.406 16.4566 81.4093 16.3563 81.419C16.256 81.4352 16.146 81.4547 16.0263 81.4741C15.9066 81.4936 15.7804 81.5163 15.6413 81.5357C15.5054 81.5714 15.3631 81.6103 15.2143 81.6493C14.6125 81.8147 13.8878 82.0904 13.147 82.5833C12.4061 83.0698 11.6426 83.7606 11.0215 84.6915C10.4133 85.6255 9.94741 86.7931 9.82771 88.1034C9.818 88.4309 9.77918 88.765 9.81153 89.1023C9.82447 89.2709 9.82123 89.4428 9.84712 89.6115C9.873 89.7801 9.89888 89.952 9.928 90.1239C10.0703 90.805 10.2742 91.5023 10.6268 92.151C10.9697 92.8029 11.4129 93.4191 11.9532 93.9704C12.5032 94.5088 13.1437 94.9759 13.8587 95.3359C14.5705 95.6991 15.3566 95.9488 16.1783 96.0461C16.3822 96.0851 16.5892 96.085 16.7963 96.098C17.0033 96.111 17.2136 96.1207 17.4206 96.1078C17.838 96.0915 18.2585 96.0364 18.6726 95.9488C19.572 95.7575 20.4196 95.391 21.1637 94.898L21.1993 94.8753L21.2414 94.8915C22.1246 95.2483 22.9916 95.5986 23.836 95.9391L23.726 96.0364C23.4672 95.0796 23.2116 94.1521 22.9689 93.2537L22.9592 93.2148L22.9819 93.1823C23.6969 92.232 24.1563 91.1488 24.3471 90.072C24.4442 89.5337 24.4862 88.9953 24.4539 88.4763C24.4442 88.2169 24.4345 87.9574 24.386 87.7077C24.3665 87.5812 24.3471 87.458 24.331 87.3347C24.3083 87.2115 24.2727 87.0915 24.2436 86.9715C23.7616 85.045 22.5872 83.6114 21.4193 82.7844C20.2482 81.9282 19.1029 81.6201 18.3394 81.4806C18.1453 81.4514 17.9739 81.4125 17.825 81.4028C17.6762 81.393 17.55 81.3833 17.4465 81.3768C17.3495 81.3703 17.2751 81.3639 17.2136 81.3574C17.1618 81.3639 17.1359 81.3606 17.1359 81.3574C17.1359 81.3541 17.1618 81.3541 17.2136 81.3541C17.2718 81.3541 17.3495 81.3574 17.4465 81.3606C17.5533 81.3639 17.6795 81.3671 17.8283 81.3736C17.9803 81.3801 18.1518 81.4158 18.3491 81.4385C18.4462 81.4547 18.5529 81.4644 18.6597 81.4871C18.7665 81.513 18.8797 81.5422 18.9962 81.5714C19.1126 81.6006 19.2356 81.633 19.365 81.6655C19.4911 81.7109 19.6206 81.7563 19.7532 81.8049C20.2935 81.993 20.879 82.2947 21.4775 82.7163C22.6681 83.5433 23.8716 84.9898 24.373 86.9488C24.4021 87.072 24.4409 87.192 24.4636 87.3185C24.483 87.445 24.5024 87.5715 24.5218 87.698C24.5704 87.9542 24.5833 88.2136 24.5962 88.4796C24.6318 89.0115 24.593 89.5596 24.4959 90.1077C24.3051 91.2072 23.8392 92.3164 23.1113 93.2861L23.1242 93.218C23.3701 94.1164 23.6257 95.044 23.8877 96.0007L23.933 96.1596L23.7777 96.098C22.9301 95.7575 22.0663 95.4104 21.1799 95.0537L21.2575 95.0472C20.4973 95.5499 19.6303 95.9261 18.7082 96.124C18.2844 96.2148 17.8542 96.2699 17.4271 96.2861C17.2136 96.2959 17.0001 96.2894 16.7865 96.2732C16.573 96.2602 16.3627 96.2602 16.1557 96.218C15.3178 96.1175 14.5122 95.8613 13.7843 95.4883C13.0564 95.1186 12.3997 94.6386 11.84 94.0872C11.29 93.5229 10.8403 92.8904 10.4909 92.2256C10.1318 91.5607 9.92799 90.8504 9.78565 90.1531C9.75977 89.978 9.73389 89.8028 9.708 89.6277C9.68212 89.4526 9.68536 89.2774 9.67565 89.1055C9.6433 88.7617 9.68212 88.4212 9.69506 88.0872C9.82123 86.7542 10.3033 85.5671 10.9277 84.6233C11.5618 83.6796 12.3479 82.9887 13.0985 82.5022C13.8523 82.0093 14.5899 81.7401 15.1981 81.5844C15.3501 81.5455 15.4957 81.5098 15.6316 81.4774C15.7707 81.4579 15.9001 81.4385 16.0198 81.4222C16.1395 81.406 16.2495 81.3898 16.353 81.3768C16.4533 81.3671 16.5471 81.3671 16.6313 81.3639C16.7898 81.3606 16.916 81.3574 17.0065 81.3541C17.0939 81.3541 17.1359 81.3541 17.1359 81.3574Z" fill="#212B36"/>
<path d="M44.4575 76.8622C45.0496 75.5422 46.431 74.6114 47.8771 74.5628C49.3232 74.5141 50.7661 75.3476 51.4422 76.6287C51.8466 77.3909 52.0052 78.2958 52.5875 78.9314C53.3154 79.7228 54.6548 79.846 55.5153 79.2071C55.7515 80.1314 55.1789 81.1888 54.2795 81.4969C54.7551 81.5455 55.2339 81.5942 55.7094 81.6428C54.9362 83.3326 52.8237 84.1044 50.9958 83.7736C49.1679 83.4428 47.615 82.2331 46.3727 80.8547" fill="#212B36"/>
<path d="M44.4704 76.8849L48.8832 78.3347C50.4361 79.3628 51.6719 80.8741 52.2801 82.6352C52.4872 83.232 52.6263 83.8547 52.8883 84.4288C53.1504 85.0028 53.5548 85.5444 54.1306 85.8039C54.5544 85.9953 55.0365 86.0147 55.47 86.1769C56.2076 86.4493 56.7641 87.1272 56.9517 87.8893C57.1393 88.6515 56.9679 89.4818 56.5505 90.1466C56.3403 90.4807 56.062 90.8018 56.0458 91.1975C56.0329 91.4634 56.1461 91.7164 56.2076 91.9758C56.4179 92.8548 56.0006 93.8472 55.2241 94.311C54.4477 94.7748 53.3736 94.6678 52.7039 94.0645C52.4225 94.7132 52.0472 95.3845 51.4066 95.6894C50.7661 95.9943 49.8246 95.7218 49.692 95.0245C49.3749 95.6926 48.5791 96.0948 47.8512 95.9586C47.1233 95.8191 46.5345 95.1542 46.4827 94.418L34.3896 81.192C36.1916 76.3465 43.2508 76.7746 44.4704 76.8849Z" fill="#212B36"/>
<path d="M46.5179 81.4839C47.2976 81.565 47.8832 82.2298 47.867 83.0147L47.0129 103.379C46.9806 105.782 42.6163 108.627 40.0411 108.575C37.4401 108.52 38.2068 105.76 38.168 103.473C38.1065 99.6527 38.1065 98.2159 38.1065 98.2386C38.1065 98.2386 34.8196 97.6937 34.1402 93.4061C33.8005 91.2753 33.9073 87.7791 34.0884 84.9217C34.2502 82.3498 35.9551 79.1941 38.5174 79.4666L46.5179 81.4839Z" fill="#FFBE9D"/>
<path d="M35.2015 87.6948C35.1918 87.9867 35.4279 88.2331 35.732 88.2494C36.0329 88.2656 36.2885 88.045 36.2982 87.7531C36.3079 87.4645 36.0717 87.2147 35.7676 87.1985C35.4635 87.1823 35.2112 87.4029 35.2015 87.6948Z" fill="#212B36"/>
<path d="M34.8453 86.738C34.9133 86.8094 35.3306 86.5012 35.9226 86.5045C36.5147 86.498 36.9482 86.8029 37.0129 86.7283C37.0452 86.6958 36.9741 86.5661 36.7864 86.4299C36.5988 86.2937 36.2817 86.1607 35.9129 86.1607C35.5441 86.1639 35.2335 86.2969 35.0556 86.4364C34.8744 86.5758 34.8097 86.7056 34.8453 86.738Z" fill="#212B36"/>
<path d="M40.9861 87.6947C40.9764 87.9866 41.2126 88.2331 41.5167 88.2493C41.8176 88.2655 42.0731 88.045 42.0829 87.7531C42.0926 87.4645 41.8564 87.2147 41.5523 87.1985C41.2482 87.1823 40.9958 87.4028 40.9861 87.6947Z" fill="#212B36"/>
<path d="M40.6591 86.8483C40.7271 86.9196 41.1444 86.6115 41.7364 86.6148C42.3285 86.6083 42.762 86.9131 42.8267 86.8385C42.859 86.8061 42.7879 86.6764 42.6002 86.5402C42.4126 86.4039 42.0955 86.271 41.7267 86.271C41.3579 86.2742 41.0473 86.4072 40.8694 86.5466C40.6882 86.6861 40.6268 86.8158 40.6591 86.8483Z" fill="#212B36"/>
<path d="M38.5142 91.2332C38.5174 91.2007 38.1486 91.1359 37.5534 91.0613C37.4013 91.0451 37.259 91.0159 37.2331 90.9121C37.1975 90.8018 37.2622 90.6397 37.3334 90.4645C37.4757 90.098 37.6245 89.7153 37.7798 89.3132C38.401 87.6753 38.8507 86.3294 38.7827 86.3034C38.718 86.2775 38.1583 87.5877 37.5404 89.2256C37.3916 89.631 37.2493 90.0137 37.1134 90.3834C37.0551 90.5553 36.9581 90.7499 37.0357 90.977C37.0778 91.0905 37.1878 91.1716 37.2848 91.1975C37.3819 91.2267 37.466 91.2299 37.5404 91.2332C38.1389 91.2656 38.511 91.2689 38.5142 91.2332Z" fill="#212B36"/>
<path d="M38.103 98.2354C38.103 98.2354 40.9856 98.4202 43.8454 96.7046C43.8454 96.7046 42.4511 99.6494 38.1613 99.2473L38.103 98.2354Z" fill="#EB996E"/>
<path d="M38.7631 92.6602C38.9767 92.378 39.3487 92.2256 39.7175 92.2645C39.9731 92.2937 40.2351 92.4169 40.3904 92.6245C40.5457 92.8321 40.5781 93.1305 40.4357 93.3283C40.2772 93.5521 39.944 93.604 39.6593 93.5229C39.3778 93.4418 39.1352 93.257 38.9023 93.0721C38.8376 93.0202 38.7729 92.9683 38.734 92.8969C38.6952 92.8256 38.6855 92.7348 38.734 92.6764" fill="#EB996E"/>
<path d="M40.2547 91.6451C40.1576 91.6386 40.1576 92.2807 39.6076 92.738C39.0577 93.1953 38.375 93.124 38.3686 93.2116C38.3589 93.2505 38.5206 93.3348 38.8086 93.3445C39.0933 93.3543 39.5074 93.2635 39.8438 92.9845C40.1803 92.7056 40.3226 92.3326 40.3453 92.0699C40.3711 91.7975 40.3 91.6386 40.2547 91.6451Z" fill="#212B36"/>
<path d="M40.3939 85.8104C40.4521 85.9726 41.0441 85.8947 41.7365 85.9791C42.432 86.0472 42.9917 86.2515 43.0855 86.1088C43.1276 86.0407 43.0305 85.8882 42.8041 85.7326C42.5808 85.5769 42.2217 85.4277 41.8044 85.3823C41.3871 85.3369 41.0053 85.4018 40.753 85.5055C40.4974 85.6093 40.368 85.7358 40.3939 85.8104Z" fill="#212B36"/>
<path d="M35.062 85.0255C35.1655 85.1585 35.5732 85.0191 36.0649 85.0126C36.5534 84.9899 36.9707 85.1034 37.0646 84.9639C37.1066 84.8958 37.0419 84.7596 36.8608 84.6331C36.6828 84.5066 36.3819 84.4028 36.0455 84.4126C35.709 84.4223 35.4179 84.5455 35.2464 84.6818C35.0717 84.8212 35.0167 84.9607 35.062 85.0255Z" fill="#212B36"/>
<path d="M47.3914 88.3402C47.7149 88.1164 48.1711 88.1975 48.5108 88.3953C49.2969 88.8494 49.6916 89.8937 49.3972 90.7532C49.1061 91.6159 48.1614 92.2029 47.2588 92.0861" fill="#FFBE9D"/>
<path d="M40.6526 78.0363C39.09 78.0882 37.9059 78.5649 36.5342 79.3141C35.1625 80.0633 34.0173 81.3023 33.5935 82.8071C33.5029 83.1282 33.4544 83.4915 33.6291 83.7736C33.8587 84.1466 34.4055 84.2082 34.8034 84.0266C35.2013 83.845 35.4893 83.4882 35.761 83.1444C35.9648 83.9325 36.7445 84.5293 37.5565 84.5196C38.3686 84.5098 39.1353 83.8969 39.3197 83.1055C39.3262 83.9293 40.1511 84.6104 40.9729 84.578C41.7946 84.5488 42.5225 83.9131 42.7975 83.1379C42.9496 83.8709 43.1146 84.6266 43.5513 85.2299C43.9881 85.8363 44.7807 86.2515 45.4924 86.0212C45.3921 86.6601 45.2951 87.3315 45.5215 87.938C45.748 88.5445 46.4209 89.0342 47.0323 88.8234C47.6276 88.6191 47.8573 87.9153 47.9964 87.3023C48.2649 86.1217 48.4946 84.9185 48.4558 83.7088C48.417 82.499 48.0935 81.2666 47.3526 80.3098C46.5859 79.3206 45.4212 78.6914 44.2113 78.3736C43.0013 78.0525 41.7331 78.0168 40.4811 78.033" fill="#212B36"/>
<path d="M47.6924 90.8083C47.7053 90.7791 47.8574 90.8439 48.0644 90.7499C48.2683 90.6688 48.4527 90.3672 48.4333 90.0169C48.4203 89.6601 48.1906 89.4072 47.9771 89.3293C47.7636 89.2418 47.6051 89.2839 47.5953 89.2515C47.5792 89.2288 47.7409 89.1153 48.0256 89.1801C48.1615 89.2126 48.32 89.2937 48.4462 89.4429C48.5691 89.5888 48.65 89.7931 48.6597 90.0072C48.6921 90.4385 48.4203 90.831 48.1227 90.8991C47.825 90.9769 47.6698 90.8277 47.6924 90.8083Z" fill="#EB996E"/>
<path d="M47.8185 92.6083C48.1276 92.6083 48.3782 92.3585 48.3782 92.0505C48.3782 91.7424 48.1276 91.4926 47.8185 91.4926C47.5094 91.4926 47.2588 91.7424 47.2588 92.0505C47.2588 92.3585 47.5094 92.6083 47.8185 92.6083Z" fill="#624BFF"/>
<path d="M44.5254 76.6676C44.5222 76.6514 44.7842 76.5768 45.221 76.5866C45.6545 76.5963 46.2627 76.7293 46.845 77.0633C47.4274 77.4006 47.8447 77.8612 48.0712 78.2341C48.3009 78.6071 48.3656 78.8731 48.3494 78.8796C48.3203 78.8925 48.2167 78.646 47.9709 78.3023C47.725 77.9585 47.3141 77.5336 46.7577 77.2125C46.2012 76.8914 45.6286 76.7487 45.208 76.7098C44.7939 76.6644 44.5319 76.6968 44.5254 76.6676Z" fill="#624BFF"/>
<path d="M46.7667 76.6708C46.7602 76.6708 46.757 76.6254 46.7505 76.5346C46.7505 76.4471 46.7667 76.3108 46.8314 76.1519C46.9543 75.8341 47.3328 75.4352 47.9378 75.2925C48.5492 75.1238 49.3224 75.4384 49.8627 76.0319C50.1377 76.3271 50.3706 76.6838 50.5615 77.073C50.7524 77.4622 50.9077 77.8838 51.0727 78.3055C51.2377 78.7271 51.4059 79.1357 51.6226 79.4957C51.8394 79.8557 52.1015 80.1703 52.4023 80.4071C52.7 80.6471 53.0364 80.8028 53.3696 80.8482C53.7029 80.9033 54.0199 80.832 54.282 80.7217C54.8125 80.4817 55.1102 80.073 55.246 79.7811C55.3787 79.4828 55.3851 79.2914 55.4046 79.2947C55.411 79.2947 55.4078 79.3401 55.4013 79.4309C55.3916 79.5184 55.3657 79.6482 55.3075 79.8071C55.1846 80.1184 54.8902 80.5595 54.3337 80.8287C54.0587 80.9552 53.7126 81.0395 53.3502 80.9876C52.9879 80.9422 52.6223 80.7801 52.3053 80.5303C51.985 80.2806 51.7068 79.9563 51.4803 79.5801C51.2538 79.2038 51.0824 78.7887 50.9141 78.3638C50.5939 77.5141 50.2833 76.7 49.7495 76.1357C49.2383 75.5649 48.5331 75.2665 47.9637 75.406C47.3943 75.5227 47.0255 75.886 46.8928 76.1746C46.7505 76.4762 46.7893 76.6741 46.7667 76.6708Z" fill="#455A64"/>
<path d="M38.6921 83.2904C38.6857 83.2904 38.676 83.2515 38.663 83.1736C38.6533 83.0958 38.6274 82.979 38.6242 82.8299C38.5983 82.5315 38.608 82.0904 38.7018 81.5585C38.7957 81.0266 39.0059 80.4071 39.3586 79.7844C39.7177 79.1682 40.2321 78.5455 40.9115 78.0687C41.5876 77.5887 42.3285 77.2903 43.0175 77.1185C43.7099 76.9401 44.3569 76.8947 44.8939 76.9271C45.431 76.9595 45.8613 77.0536 46.1427 77.1541C46.2883 77.1963 46.3918 77.2514 46.463 77.2806C46.5342 77.3131 46.5698 77.3325 46.5698 77.339C46.5601 77.3779 45.9486 77.0698 44.8875 77.0439C44.3601 77.0276 43.7293 77.086 43.0531 77.2676C42.3802 77.446 41.6588 77.7412 41.0053 78.2082C40.3485 78.6687 39.8471 79.2687 39.4912 79.8655C39.1418 80.4688 38.9251 81.0688 38.8183 81.5844C38.6015 82.6223 38.731 83.2904 38.6921 83.2904Z" fill="#455A64"/>
<path d="M41.39 83.0017C41.3803 83.0017 41.3706 82.8817 41.3771 82.6677C41.3836 82.4536 41.4159 82.1423 41.5 81.766C41.6618 81.0168 42.0824 79.9952 42.8912 79.1228C43.6999 78.2503 44.6834 77.7541 45.4178 77.5336C45.7866 77.4201 46.094 77.3649 46.3043 77.339C46.5178 77.3163 46.6375 77.3163 46.6375 77.326C46.6407 77.3584 46.1684 77.3974 45.4534 77.6471C44.7449 77.8903 43.797 78.3898 43.0141 79.2363C42.2312 80.0828 41.8041 81.0655 41.6165 81.792C41.4256 82.525 41.4224 83.005 41.39 83.0017Z" fill="#455A64"/>
<path d="M40.6527 108.322C39.7177 105.445 37.4272 102.516 34.9135 103.574C32.1151 104.751 31.3354 106.24 29.802 108.549C28.2685 110.858 27.3271 113.501 26.4018 116.115C26.0395 117.137 25.6901 118.324 26.2465 119.255C26.7253 120.059 27.712 120.377 28.6147 120.617C30.9472 121.24 33.3024 121.772 35.6738 122.213C36.6249 122.391 37.6699 122.54 38.511 122.06C39.5786 121.454 39.9054 120.092 40.1286 118.882C40.9083 114.64 41.6912 110.394 42.4709 106.152" fill="#624BFF"/>
<path d="M37.958 102.192L34.2764 103.785C32.4162 105.254 31.8889 107.771 31.9536 110.141L30.4233 136.133C30.4233 136.133 41.1641 142.788 53.7165 135.828C54.0433 135.646 51.6137 129.702 51.6137 129.702L55.0332 116.722C55.2953 114.857 55.4571 110.988 54.9718 109.152C53.7262 104.443 50.394 103.032 46.9712 102.088C46.9712 102.088 43.5484 104.968 40.2065 104.362C40.2065 104.362 38.1683 104.174 37.958 102.192Z" fill="#624BFF"/>
<g opacity="0.2">
<path d="M33.0146 123.831C35.1402 126.919 37.2624 130.003 39.3879 133.091C40.2194 134.297 41.0832 135.536 42.3158 136.328C44.108 137.476 46.5765 137.45 48.3429 136.266C50.1093 135.082 51.0766 132.805 50.7045 130.707C50.6592 130.457 50.5945 130.201 50.4198 130.016C50.1546 129.731 49.7049 129.695 49.3328 129.809C48.9608 129.922 48.634 130.149 48.2911 130.331C46.2885 131.395 43.7489 130.824 41.8725 129.552C39.9961 128.281 38.618 126.416 37.1783 124.662C36.6477 124.013 36.0654 123.348 35.2793 123.056C34.4931 122.767 33.4482 123.004 33.1149 123.773" fill="black"/>
</g>
<path d="M43.7487 111.095C44.9637 111.095 45.9487 110.11 45.9487 108.896C45.9487 107.682 44.9637 106.697 43.7487 106.697C42.5338 106.697 41.5488 107.682 41.5488 108.896C41.5488 110.11 42.5338 111.095 43.7487 111.095Z" fill="white"/>
<path d="M33.4932 107.021C33.4932 108.238 34.4767 109.22 35.6931 109.22C36.9095 109.22 37.893 108.234 37.893 107.021C37.893 105.805 36.9095 104.822 35.6931 104.822C34.4767 104.819 33.4932 105.805 33.4932 107.021Z" fill="white"/>
<path d="M31.7173 128.086C31.7173 129.303 32.7008 130.285 33.9172 130.285C35.1336 130.285 36.1171 129.299 36.1171 128.086C36.1171 126.87 35.1304 125.887 33.9172 125.887C32.7008 125.887 31.7173 126.873 31.7173 128.086Z" fill="white"/>
<path d="M37.8933 136.619C39.1083 136.619 40.0932 135.635 40.0932 134.421C40.0932 133.206 39.1083 132.222 37.8933 132.222C36.6783 132.222 35.6934 133.206 35.6934 134.421C35.6934 135.635 36.6783 136.619 37.8933 136.619Z" fill="white"/>
<path d="M48.1486 137.155C49.3636 137.155 50.3486 136.17 50.3486 134.956C50.3486 133.741 49.3636 132.757 48.1486 132.757C46.9337 132.757 45.9487 133.741 45.9487 134.956C45.9487 136.17 46.9337 137.155 48.1486 137.155Z" fill="white"/>
<path d="M39.4587 123.607C40.6737 123.607 41.6586 122.623 41.6586 121.409C41.6586 120.194 40.6737 119.21 39.4587 119.21C38.2437 119.21 37.2588 120.194 37.2588 121.409C37.2588 122.623 38.2437 123.607 39.4587 123.607Z" fill="white"/>
<path d="M37.259 116.67C38.474 116.67 39.4589 115.686 39.4589 114.471C39.4589 113.257 38.474 112.272 37.259 112.272C36.044 112.272 35.0591 113.257 35.0591 114.471C35.0591 115.686 36.044 116.67 37.259 116.67Z" fill="white"/>
<path d="M37.2588 102.727C37.2976 102.698 37.5305 103.402 38.3911 104.125C38.8149 104.485 39.4005 104.822 40.096 105.053C40.7948 105.28 41.6133 105.387 42.4545 105.293C43.2988 105.189 44.0753 104.926 44.7385 104.599C45.4017 104.274 45.9549 103.895 46.3981 103.548C46.8413 103.201 47.1778 102.893 47.4043 102.675C47.6307 102.458 47.7569 102.335 47.7666 102.345C47.7731 102.351 47.6663 102.491 47.4528 102.721C47.2393 102.954 46.9125 103.279 46.4758 103.639C46.039 103.999 45.4826 104.394 44.8129 104.735C44.1432 105.075 43.3474 105.351 42.4803 105.455C41.6101 105.552 40.7689 105.435 40.054 105.195C39.339 104.949 38.7437 104.592 38.3199 104.209C37.8929 103.83 37.6146 103.451 37.4658 103.168C37.3817 103.032 37.3429 102.915 37.3041 102.841C37.2685 102.773 37.2555 102.731 37.2588 102.727Z" fill="#212B36"/>
<path d="M48.3454 102.578C50.8624 103.632 53.4797 104.761 55.2169 106.866C56.9833 109.003 57.598 111.909 57.4686 114.679C57.3392 117.448 56.5369 120.137 55.7378 122.793C55.424 123.831 55.0067 124.996 54.007 125.417C53.1464 125.78 52.1629 125.456 51.2894 125.116C49.041 124.24 46.8282 123.277 44.6541 122.229C43.7806 121.811 42.8521 121.311 42.4574 120.429C41.956 119.307 42.4963 118.016 43.0333 116.91C44.9129 113.025 46.7926 109.142 48.6722 105.257" fill="#624BFF"/>
<path d="M53.7131 118.217C54.9281 118.217 55.913 117.233 55.913 116.018C55.913 114.804 54.9281 113.819 53.7131 113.819C52.4981 113.819 51.5132 114.804 51.5132 116.018C51.5132 117.233 52.4981 118.217 53.7131 118.217Z" fill="white"/>
<path d="M47.8864 122.239C49.1014 122.239 50.0863 121.254 50.0863 120.04C50.0863 118.825 49.1014 117.841 47.8864 117.841C46.6715 117.841 45.6865 118.825 45.6865 120.04C45.6865 121.254 46.6715 122.239 47.8864 122.239Z" fill="white"/>
<path d="M48.4688 109.24C48.4688 110.43 49.4361 111.397 50.6266 111.397C51.8171 111.397 52.7845 110.43 52.7845 109.24C52.7845 108.049 51.8171 107.083 50.6266 107.083C49.4361 107.083 48.4688 108.049 48.4688 109.24Z" fill="white"/>
<path d="M43.9976 121.885L43.4379 124.052L32.2572 115.882L28.8344 111.004C28.375 110.352 27.6827 109.901 26.8998 109.749C26.0683 109.587 25.2078 109.772 24.5187 110.261L21.332 112.528C21.332 112.528 21.4194 114.247 22.1926 113.904C22.9658 113.56 24.5154 112.7 24.5154 112.7L24.9457 116.829L26.8383 118.204L28.7309 119.667L41.3545 132.228C44.0752 134.933 48.6465 134.187 50.3612 130.756L52.2311 125.43L43.9976 121.885Z" fill="#FFBE9D"/>
<path d="M43.1563 123.744C43.1627 123.727 43.373 123.796 43.6254 124.032C43.881 124.266 44.1462 124.684 44.2789 125.193C44.4115 125.703 44.4115 126.179 44.3986 126.513C44.3856 126.851 44.3565 127.058 44.3339 127.058C44.3112 127.058 44.2951 126.851 44.2789 126.517C44.2595 126.183 44.2401 125.722 44.1139 125.239C43.9877 124.756 43.7548 124.36 43.538 124.117C43.3213 123.87 43.1401 123.766 43.1563 123.744Z" fill="#EB996E"/>
<path d="M24.496 112.914C24.4766 112.901 24.5316 112.772 24.6642 112.58C24.7936 112.395 25.0168 112.133 25.3727 112.006C25.7383 111.883 26.0974 112.01 26.2753 112.181C26.4597 112.357 26.4533 112.532 26.4338 112.528C26.408 112.538 26.3691 112.395 26.1977 112.272C26.0359 112.152 25.7253 112.065 25.4277 112.165C25.1236 112.272 24.9068 112.496 24.7548 112.655C24.6092 112.82 24.5186 112.927 24.496 112.914Z" fill="#EB996E"/>
<path d="M26.4987 114.017C26.4793 114.033 26.3952 113.959 26.2399 113.871C26.0879 113.787 25.8582 113.696 25.5961 113.699C25.3341 113.699 25.1044 113.79 24.9556 113.878C24.8035 113.965 24.7194 114.043 24.7 114.024C24.6838 114.011 24.7388 113.9 24.8876 113.777C25.0364 113.654 25.292 113.531 25.5961 113.527C25.9002 113.527 26.1591 113.651 26.3079 113.771C26.4599 113.894 26.5149 114.004 26.4987 114.017Z" fill="#EB996E"/>
<path d="M43.9976 121.885C43.9976 121.885 43.92 121.885 43.7841 121.833C43.6482 121.781 43.4541 121.671 43.2794 121.451C43.1047 121.233 42.9559 120.912 42.9106 120.517C42.8621 120.118 42.9624 119.664 43.1468 119.206C43.3312 118.746 43.6062 118.282 43.8391 117.763C44.0785 117.244 44.2888 116.67 44.4797 116.054C44.8614 114.825 45.1396 113.43 45.5246 111.984C45.9128 110.54 46.424 109.185 47.1584 108.101C47.8766 107.008 48.8342 106.249 49.7271 105.838C50.6232 105.416 51.445 105.338 51.9885 105.377C52.5385 105.416 52.8231 105.536 52.8231 105.536C52.8199 105.555 52.5288 105.461 51.9852 105.442C51.4482 105.426 50.6459 105.516 49.7756 105.945C48.9086 106.363 47.9801 107.109 47.2845 108.189C46.5696 109.256 46.0714 110.595 45.6864 112.029C45.3014 113.466 45.0199 114.864 44.6252 116.099C44.4279 116.719 44.2111 117.296 43.9653 117.821C43.7194 118.347 43.4412 118.804 43.2535 119.252C43.0659 119.696 42.9624 120.131 43.0012 120.507C43.0368 120.886 43.1694 121.198 43.3279 121.412C43.4865 121.629 43.6676 121.743 43.7938 121.804C43.9232 121.863 44.0009 121.876 43.9976 121.885Z" fill="#212B36"/>
<path d="M31.5909 114.844C31.5456 114.838 31.6686 113.579 31.8691 112.032C32.0697 110.485 32.2671 109.237 32.3124 109.243C32.3577 109.249 32.2347 110.508 32.0341 112.055C31.8336 113.599 31.6362 114.847 31.5909 114.844Z" fill="#212B36"/>
<path d="M26.5602 119.66L25.965 124.344L18.8444 118.256L14.9492 119.2C14.9492 119.2 18.9673 127.655 22.141 131.005C25.3147 134.356 27.0261 134.832 28.2231 134.884C29.8698 134.956 30.6204 132.948 30.6204 132.948L31.3386 121.308L26.5602 119.66Z" fill="#FFBE9D"/>
<path d="M25.9944 124.217C26.0332 124.198 26.3115 124.704 26.4959 125.385C26.6835 126.066 26.7062 126.64 26.6641 126.643C26.6156 126.65 26.5185 126.095 26.3341 125.427C26.1529 124.762 25.9524 124.237 25.9944 124.217Z" fill="#EB996E"/>
<path d="M18.1552 106.386H12.7946C11.9825 106.386 11.2579 107.329 11.549 108.098L16.9421 118.629C17.1491 119.038 17.5697 119.294 18.0291 119.294L24.5673 119.281C25.3179 119.18 25.5897 118.347 25.2791 117.893L20.0769 107.586C19.7178 106.849 18.9737 106.386 18.1552 106.386Z" fill="#455A64"/>
<path d="M17.7932 107.021H12.4325C11.7596 107.021 11.3261 107.732 11.6302 108.328L16.8938 118.629C17.1008 119.038 17.5214 119.294 17.9808 119.294H24.4447C24.8394 119.294 25.0949 118.879 24.917 118.525L19.7149 108.218C19.3558 107.485 18.6117 107.021 17.7932 107.021Z" fill="#212B36"/>
<path d="M17.34 111.332L14.0757 112.639L13.377 115.275L14.9492 119.2L20.7175 120.04L19.0288 118.308L19.2455 116.8C19.2455 116.8 20.8534 116.294 20.8955 116.047C20.9343 115.801 20.6949 114.974 20.449 114.932C20.2032 114.893 18.5144 115.522 18.5144 115.522C18.5144 115.522 20.5105 113.936 20.4555 113.683C20.4005 113.427 20.1837 112.778 19.7858 112.704C19.3879 112.632 16.1657 114.153 16.1657 114.153L15.6416 115.35L15.1854 113.437C15.1822 113.443 18.0485 112.639 17.34 111.332Z" fill="#FFBE9D"/>
<path d="M17.7507 117.513C17.7313 117.52 17.6698 117.4 17.6407 117.186C17.6083 116.975 17.6245 116.67 17.7378 116.359C17.851 116.051 18.0386 115.807 18.2004 115.668C18.3621 115.525 18.4851 115.477 18.4948 115.493C18.5271 115.532 18.1033 115.84 17.8963 116.417C17.6763 116.994 17.7992 117.504 17.7507 117.513Z" fill="#EB996E"/>
<path d="M16.198 116.943C16.1786 116.933 16.295 116.625 16.3274 116.086C16.3533 115.82 16.3662 115.49 16.4924 115.136C16.5538 114.961 16.6477 114.779 16.7932 114.63C16.9388 114.478 17.1329 114.371 17.327 114.293C18.1067 114.007 18.8087 113.78 19.3231 113.612C19.8375 113.446 20.1578 113.355 20.1643 113.378C20.1708 113.401 19.8634 113.531 19.362 113.722C18.8605 113.917 18.1552 114.166 17.3885 114.445C17.2041 114.52 17.0359 114.611 16.9097 114.74C16.7835 114.867 16.6962 115.026 16.638 115.185C16.515 115.506 16.4859 115.827 16.4471 116.093C16.3824 116.641 16.2206 116.956 16.198 116.943Z" fill="#EB996E"/>
<path d="M15.4506 116.349C15.4053 116.343 15.415 116.054 15.47 115.704C15.5282 115.353 15.6123 115.078 15.6576 115.087C15.7029 115.094 15.6932 115.383 15.6382 115.733C15.58 116.083 15.4959 116.359 15.4506 116.349Z" fill="#EB996E"/>
<path d="M15.3638 109.006C15.3638 109.386 15.6711 109.691 16.0464 109.691C16.4249 109.691 16.729 109.382 16.729 109.006C16.729 108.627 16.4217 108.322 16.0464 108.322C15.6679 108.322 15.3638 108.627 15.3638 109.006Z" fill="#F1F5F9"/>
<path d="M28.7309 119.667C28.7374 119.66 28.8053 119.716 28.9315 119.826C29.0739 119.952 29.2486 120.111 29.4653 120.306C29.9409 120.747 30.5847 121.34 31.3482 122.051L31.3741 122.073L31.3708 122.109C31.2867 123.202 31.1864 124.486 31.0797 125.858C30.9308 127.869 30.8176 129.692 30.7529 131.012C30.7238 131.651 30.7011 132.179 30.6817 132.575C30.6688 132.945 30.6559 133.149 30.6429 133.149C30.63 133.149 30.6235 132.945 30.617 132.575C30.6106 132.205 30.6138 131.67 30.6332 131.009C30.6656 129.685 30.7626 127.859 30.9114 125.849C31.0117 124.47 31.1217 123.183 31.2285 122.099L31.2511 122.158C30.5038 121.431 29.8729 120.822 29.4103 120.371C29.2065 120.166 29.0383 119.998 28.9024 119.861C28.7859 119.738 28.7245 119.67 28.7309 119.667Z" fill="#EB996E"/>
<path d="M82.7973 37.2003L71.2995 31.4824C67.4432 23.0564 58.9606 17.2023 49.1095 17.2023C35.6286 17.2023 24.7002 28.158 24.7002 41.6727C24.7002 55.1874 35.6286 66.1432 49.1095 66.1432C62.2508 66.1432 72.9592 55.7323 73.493 42.6911L82.7973 37.2003Z" fill="#F59E0B"/>
<path d="M71.1769 15.0589C71.1769 15.4092 70.8922 15.6946 70.5428 15.6946C70.1934 15.6946 69.9087 15.4092 69.9087 15.0589C69.9087 14.7086 70.1934 14.4232 70.5428 14.4232C70.8922 14.4232 71.1769 14.7054 71.1769 15.0589Z" fill="#212B36"/>
<path d="M73.713 15.0585C73.713 15.4088 73.4283 15.6942 73.0789 15.6942C72.7295 15.6942 72.4448 15.4088 72.4448 15.0585C72.4448 14.7082 72.7295 14.4228 73.0789 14.4228C73.4283 14.4228 73.713 14.705 73.713 15.0585Z" fill="#212B36"/>
<path d="M76.2458 14.7406C76.4205 15.0455 76.317 15.4347 76.0129 15.6098C75.7088 15.785 75.3206 15.6812 75.1459 15.3763C74.9712 15.0714 75.0747 14.6823 75.3788 14.5071C75.6829 14.332 76.0679 14.4358 76.2458 14.7406Z" fill="#212B36"/>
<path d="M73.1178 7.63142C73.1178 7.62817 73.1599 7.62817 73.2472 7.62817C73.341 7.63142 73.464 7.63466 73.6225 7.6379C73.7066 7.64115 73.7972 7.64115 73.9007 7.65088C74.0043 7.66385 74.1142 7.68007 74.2339 7.69628C74.3536 7.7125 74.4831 7.73196 74.6222 7.75142C74.758 7.78385 74.9036 7.82277 75.0557 7.85845C75.6639 8.01412 76.4015 8.28331 77.1553 8.77629C77.9091 9.26278 78.692 9.9536 79.3261 10.8974C79.9505 11.8412 80.4325 13.0282 80.5587 14.3612C80.5716 14.6953 80.6105 15.0358 80.5781 15.3796C80.5652 15.5515 80.5684 15.7266 80.5458 15.9018C80.5199 16.0769 80.494 16.2488 80.4681 16.4272C80.3258 17.1212 80.1187 17.8347 79.7628 18.4996C79.4135 19.1645 78.9638 19.7969 78.4138 20.3612C77.8541 20.9126 77.1974 21.3926 76.4694 21.7623C75.7415 22.1353 74.936 22.3915 74.0981 22.4921C73.891 22.5342 73.6775 22.5342 73.4672 22.5472C73.2537 22.5602 73.0434 22.5699 72.8267 22.5602C72.3996 22.544 71.9693 22.4888 71.5455 22.398C70.6235 22.2002 69.7565 21.8272 68.9962 21.3213L69.0739 21.3277C68.1907 21.6845 67.3236 22.0315 66.476 22.3721L66.3207 22.4337L66.366 22.2748C66.6281 21.3213 66.8837 20.3904 67.1295 19.4921L67.1425 19.5602C66.4146 18.5904 65.9487 17.4812 65.7578 16.3818C65.6608 15.8304 65.6219 15.2823 65.6575 14.7536C65.6672 14.4877 65.6802 14.225 65.7319 13.972C65.7513 13.8455 65.7708 13.7158 65.7902 13.5925C65.8128 13.4661 65.8516 13.3461 65.8808 13.2228C66.3822 11.2639 67.5857 9.81738 68.7762 8.99035C69.3715 8.56872 69.9603 8.2671 70.5006 8.07899C70.6332 8.03034 70.7659 7.98493 70.8888 7.93953C71.0182 7.90709 71.1411 7.87466 71.2576 7.84547C71.3741 7.81628 71.4873 7.78709 71.5941 7.76115C71.7008 7.74169 71.8076 7.72872 71.9046 7.7125C72.102 7.68655 72.2734 7.65412 72.4255 7.64763C72.5743 7.64115 72.7005 7.6379 72.8072 7.63466C72.9043 7.63142 72.9819 7.63142 73.0402 7.62817C73.0919 7.62817 73.1178 7.63142 73.1178 7.63142C73.1178 7.63142 73.0919 7.6379 73.0402 7.64115C72.9819 7.64439 72.9043 7.65088 72.8072 7.66061C72.7037 7.66709 72.5775 7.67682 72.4287 7.68655C72.2799 7.69953 72.1084 7.7352 71.9143 7.76439C71.1508 7.90385 70.0056 8.20872 68.8345 9.06818C67.6666 9.89522 66.4922 11.3287 66.0102 13.2552C65.981 13.3752 65.9455 13.4952 65.9228 13.6185C65.9034 13.7417 65.8872 13.8682 65.8678 13.9915C65.8193 14.2412 65.8096 14.4974 65.7999 14.7601C65.7675 15.279 65.8096 15.8174 65.9066 16.3558C66.0975 17.4326 66.5569 18.5158 67.2719 19.4661L67.2945 19.4985L67.2848 19.5375C67.0389 20.4358 66.7866 21.3667 66.5278 22.3202L66.4178 22.2229C67.2622 21.8823 68.1292 21.5321 69.0124 21.1753L69.0545 21.1591L69.09 21.1818C69.8341 21.6715 70.6817 22.0413 71.5811 22.2326C71.9952 22.3202 72.4158 22.3753 72.8331 22.3915C73.0434 22.4013 73.2505 22.3948 73.4575 22.3786C73.6646 22.3656 73.8716 22.3656 74.0754 22.3267C74.8939 22.2294 75.6833 21.9796 76.395 21.6164C77.11 21.2564 77.7506 20.7894 78.3006 20.251C78.8408 19.6996 79.284 19.0802 79.627 18.4315C79.9796 17.7828 80.1834 17.0855 80.3258 16.4045C80.3516 16.2326 80.3775 16.0607 80.4034 15.892C80.4293 15.7234 80.4261 15.5515 80.439 15.3828C80.4713 15.0455 80.4325 14.7115 80.4228 14.3839C80.3031 13.0736 79.8373 11.906 79.229 10.972C78.6111 10.0412 77.8444 9.35035 77.1035 8.86386C76.3627 8.37088 75.638 8.0952 75.0363 7.9298C74.8842 7.89088 74.7419 7.85196 74.6092 7.81628C74.4734 7.79358 74.3439 7.77412 74.2242 7.75466C74.1045 7.7352 73.9945 7.71574 73.8943 7.69953C73.794 7.6898 73.7001 7.68655 73.6193 7.68007C73.4607 7.66709 73.3378 7.66061 73.244 7.65412C73.1631 7.64115 73.1178 7.63466 73.1178 7.63142Z" fill="#212B36"/>
<path d="M63.8912 39.0652C63.9365 39.0652 63.9398 41.3647 63.8945 44.196C63.8492 47.0307 63.778 49.3269 63.7295 49.3269C63.6842 49.3269 63.681 47.0274 63.7262 44.196C63.7715 41.3614 63.8459 39.0652 63.8912 39.0652Z" fill="#212B36"/>
<path d="M54.4865 26.9159C54.493 26.9159 54.4897 26.9743 54.4768 27.0846C54.4671 27.1948 54.4412 27.357 54.3959 27.5646C54.3053 27.9764 54.108 28.57 53.7165 29.2219C53.3186 29.8673 52.7104 30.5711 51.8498 31.1062C50.9958 31.6446 49.8861 31.9624 48.7214 31.93C47.5568 31.8943 46.4665 31.5149 45.6448 30.9278C44.8166 30.3473 44.2504 29.6078 43.8881 28.9397C43.5322 28.2651 43.3705 27.6651 43.3025 27.2467C43.2702 27.0359 43.2508 26.8737 43.2475 26.7635C43.2411 26.6532 43.2411 26.5948 43.2475 26.5948C43.2669 26.5948 43.2799 26.8283 43.3672 27.237C43.4546 27.6456 43.6325 28.2327 43.9916 28.8846C44.3572 29.53 44.9233 30.2435 45.7321 30.8013C46.5345 31.3657 47.5924 31.7257 48.7247 31.7613C49.857 31.7905 50.9343 31.4889 51.7657 30.9732C52.6069 30.4608 53.2086 29.783 53.613 29.157C54.0109 28.5246 54.2212 27.9505 54.3312 27.5483C54.4444 27.1462 54.4703 26.9127 54.4865 26.9159Z" fill="#212B36"/>
<path d="M34.736 39.756C34.7815 39.756 34.8205 41.9971 34.8237 44.7603C34.8237 47.5236 34.788 49.7647 34.7425 49.7647C34.697 49.7647 34.658 47.5236 34.6548 44.7603C34.6548 41.9971 34.6905 39.756 34.736 39.756Z" fill="#212B36"/>
<path d="M44.2892 26.0175L53.8976 26.0208C53.8976 26.0208 62.584 29.1148 65.4083 31.2878C68.2326 33.4576 72.5645 48.7496 72.5645 48.7496L63.8878 48.4934L63.2375 61.6254C54.3505 67.9692 43.6842 67.5054 35.4474 61.9529L34.8036 49.5215C34.8036 49.5215 30.0188 49.3788 27.5763 49.3074C25.1337 49.2361 25.0205 48.5615 25.0205 48.5615C25.0205 48.5615 30.5753 33.9311 32.2705 31.0997C33.7458 28.6316 42.3351 26.4262 44.2892 26.0175Z" fill="#212B36"/>
<path d="M67.4044 34.7905C67.4044 34.7905 67.2944 34.8749 67.0614 34.9916C66.8285 35.1084 66.4597 35.2446 65.9647 35.2965C65.4697 35.3516 64.8518 35.3192 64.166 35.1506C63.4769 34.9916 62.7296 34.677 61.9337 34.2976C61.1346 33.9246 60.2741 33.4738 59.2776 33.2078C58.2844 32.9386 57.1586 32.9549 56.0392 33.2468C54.9166 33.5322 53.8037 34.0576 52.6941 34.6641C51.5844 35.277 50.4586 35.9711 49.2227 36.5257C47.9901 37.0771 46.6734 37.4435 45.3826 37.3787C44.0918 37.3235 42.898 36.9279 41.8271 36.4673C40.7498 36.0035 39.7793 35.4587 38.854 34.9916C37.932 34.5214 37.052 34.1159 36.2174 33.8435C34.5448 33.2857 33.0696 33.3213 32.1249 33.5711C31.6493 33.6911 31.2967 33.8435 31.0638 33.957C30.9473 34.0122 30.8632 34.0673 30.8049 34.0965C30.7467 34.1289 30.7144 34.1419 30.7144 34.1419C30.7144 34.1387 30.7402 34.1192 30.7952 34.0835C30.8535 34.0478 30.9343 33.9895 31.0476 33.9311C31.274 33.8046 31.6267 33.6424 32.1087 33.5095C33.0599 33.237 34.5577 33.1819 36.253 33.7332C37.1006 34.0024 37.987 34.4014 38.9155 34.8684C39.8472 35.3322 40.8178 35.8706 41.8886 36.3246C42.953 36.7787 44.1306 37.1646 45.3923 37.2133C46.6508 37.2749 47.9384 36.9181 49.158 36.3733C50.3809 35.8252 51.5035 35.1343 52.6197 34.5214C53.7358 33.9116 54.8616 33.383 56.0069 33.0976C57.1457 32.8024 58.3071 32.7927 59.3197 33.0716C60.3355 33.3473 61.1961 33.8078 61.9919 34.1873C62.7845 34.5765 63.5157 34.8911 64.1951 35.0565C64.8712 35.2316 65.4762 35.2738 65.9647 35.2284C66.4532 35.1862 66.8188 35.063 67.055 34.9592C67.2814 34.8554 67.3979 34.7808 67.4044 34.7905Z" fill="#F1F5F9"/>
<path d="M70.5584 42.1171C70.552 42.1268 70.4226 42.0328 70.1443 41.9095C69.8694 41.7863 69.4488 41.6273 68.8762 41.5625C68.31 41.4911 67.5983 41.5203 66.8089 41.7149C66.0195 41.9063 65.1654 42.2922 64.2757 42.8079C63.3828 43.3171 62.4576 43.9657 61.3932 44.5625C60.3353 45.143 59.1027 45.7009 57.7084 45.7333C56.3172 45.7852 54.9132 45.2987 53.5641 44.6987C52.2053 44.1052 50.8369 43.382 49.3131 43.0284C47.7893 42.6847 46.2365 42.7755 44.7839 43.022C43.3248 43.2652 41.9531 43.6641 40.6332 44.0144C39.3164 44.3647 38.0515 44.6695 36.8415 44.8122C35.6348 44.9549 34.4863 44.9485 33.464 44.7474C31.4129 44.3452 29.9798 43.2814 29.268 42.3765C28.896 41.929 28.7083 41.5106 28.5757 41.2382C28.5272 41.1019 28.4851 40.9949 28.456 40.9138C28.4301 40.8392 28.4172 40.8036 28.4204 40.8003C28.4528 40.7809 28.5854 41.4425 29.3166 42.3344C30.0315 43.2165 31.4582 44.2512 33.4834 44.6306C34.4896 44.8187 35.6251 44.822 36.8189 44.6728C38.0159 44.5236 39.2744 44.2187 40.5879 43.8652C41.9013 43.5149 43.2795 43.1095 44.7483 42.8598C46.2106 42.6068 47.7861 42.516 49.3422 42.863C50.8951 43.223 52.2701 43.9528 53.6224 44.5463C54.9649 45.1463 56.3431 45.6231 57.6954 45.5776C59.0477 45.5517 60.2641 45.0101 61.3156 44.4393C62.3735 43.8555 63.3052 43.2101 64.2046 42.7041C65.104 42.1917 65.9677 41.809 66.7733 41.6241C67.5756 41.436 68.2971 41.4165 68.8729 41.4976C69.4488 41.5722 69.8726 41.7441 70.1476 41.8771C70.4323 42.0165 70.5584 42.1171 70.5584 42.1171Z" fill="#F1F5F9"/>
<path d="M63.603 54.1399C63.603 54.1399 63.5156 54.2015 63.328 54.2729C63.1403 54.3442 62.8492 54.4123 62.4642 54.4091C62.0824 54.4058 61.6166 54.3215 61.1086 54.1269C60.6007 53.9356 60.0637 53.6339 59.4652 53.3258C58.8699 53.0145 58.1841 52.7355 57.4044 52.6285C56.6279 52.5085 55.7771 52.528 54.9036 52.6674C53.1404 52.9301 51.3384 53.7442 49.4103 54.4739C48.443 54.8372 47.4724 55.1356 46.5116 55.3172C45.554 55.5053 44.6125 55.5994 43.7164 55.6285C41.9209 55.6772 40.3098 55.4339 38.9995 55.0999C37.686 54.7658 36.6702 54.3345 35.9908 54.0037C35.6447 53.848 35.3956 53.6956 35.2176 53.6015C35.14 53.5561 35.0753 53.5204 35.0203 53.488C34.975 53.462 34.9556 53.4458 34.9556 53.4458C34.9556 53.4426 34.9814 53.4523 35.0267 53.475C35.0817 53.501 35.1497 53.5334 35.2306 53.5723C35.4117 53.6566 35.6673 53.7993 36.0135 53.9453C36.6993 54.2566 37.7152 54.6718 39.0222 54.9864C40.3292 55.3042 41.9273 55.5345 43.7067 55.4761C44.5931 55.4437 45.5249 55.3464 46.4728 55.1583C47.4239 54.9734 48.3815 54.6783 49.3456 54.3183C51.264 53.595 53.0822 52.7777 54.8745 52.5182C55.7642 52.382 56.6279 52.3691 57.4206 52.4955C58.2164 52.6123 58.9217 52.9074 59.5169 53.2253C60.1155 53.5431 60.6428 53.848 61.1378 54.0426C61.6327 54.2404 62.0857 54.3312 62.4609 54.3442C63.2212 54.3702 63.5965 54.1139 63.603 54.1399Z" fill="#F1F5F9"/>
<path d="M63.3251 60.941C63.3089 60.9572 63.0663 60.594 62.471 60.1107C61.879 59.6437 60.8761 59.0599 59.5076 58.9334C58.8315 58.8653 58.0744 58.9367 57.3174 59.1929C56.5636 59.4653 55.8292 59.9259 55.124 60.4902C54.4155 61.0545 53.7231 61.7162 52.9532 62.3453C52.1864 62.9713 51.3097 63.5681 50.2842 63.8794C49.2586 64.1843 48.2007 64.2005 47.214 64.074C46.224 63.9475 45.2923 63.6945 44.422 63.4286C42.6783 62.8935 41.161 62.2578 39.841 61.8848C38.5243 61.5021 37.3985 61.4243 36.6415 61.5507C35.8844 61.6675 35.4995 61.8718 35.4897 61.8459C35.4897 61.8426 35.5124 61.8297 35.5609 61.8102C35.6192 61.7875 35.6871 61.7551 35.7744 61.7194C35.8683 61.6772 35.9847 61.6351 36.1303 61.5994C36.2727 61.5572 36.4409 61.5118 36.6318 61.4859C37.3953 61.3367 38.5405 61.4016 39.8734 61.7713C41.2095 62.1313 42.7268 62.7572 44.4673 63.2826C45.3344 63.5454 46.2596 63.7918 47.2334 63.9118C48.2072 64.0351 49.2424 64.0189 50.2356 63.7205C51.2321 63.4189 52.0894 62.8416 52.8496 62.2221C53.6131 61.5994 54.3119 60.941 55.0301 60.3734C55.7451 59.8059 56.4989 59.3388 57.2754 59.0632C58.055 58.8037 58.8315 58.7356 59.5238 58.8167C60.9181 58.9626 61.9275 59.5724 62.5163 60.0621C63.1019 60.568 63.3251 60.941 63.3251 60.941Z" fill="#F1F5F9"/>
<g opacity="0.2">
<path d="M34.5029 59.6599C36.4537 59.8124 38.191 58.4988 39.6371 57.1788C41.0865 55.8588 42.5973 54.3896 44.5352 54.1107C46.5636 53.8188 48.6277 54.9215 50.6367 54.5161C51.5425 54.3345 52.3869 53.8545 53.3089 53.8188C54.8295 53.7604 56.1041 54.8923 57.1976 55.9529C58.6211 57.3313 60.0413 58.7097 61.4648 60.088C61.9015 60.5097 62.7297 61.1421 63.2765 60.8794L63.3833 58.7486C62.7006 54.9118 61.9598 50.968 59.0125 48.4285C56.8256 46.5442 53.8492 45.8955 50.9829 45.5679C47.5115 45.1722 43.7523 45.2177 40.8374 47.1506C38.893 48.4382 37.5213 50.4588 36.622 52.6155C35.7226 54.7723 35.2567 57.0783 34.7973 59.368" fill="black"/>
</g>
<path d="M71.8559 48.7269C71.94 49.2328 73.3408 57.3345 73.0885 58.9367C72.8362 60.5389 72.4156 62.647 70.5651 63.4027C68.7146 64.1616 66.0261 63.1497 64.5121 60.5356C62.998 57.9216 56.4403 48.7366 56.4403 48.7366L51.5649 48.1463V39.9701L60.8984 45.9247L65.185 49.8264L64.8582 48.5193L71.8559 48.7269Z" fill="#EB996E"/>
<path d="M53.6681 51.1366H46.3049C45.6999 51.1366 45.2114 50.6469 45.2114 50.0404V36.7235C45.2114 36.1171 45.6999 35.6273 46.3049 35.6273H53.6681C54.2731 35.6273 54.7616 36.1171 54.7616 36.7235V50.0404C54.7616 50.6437 54.2731 51.1366 53.6681 51.1366Z" fill="#455A64"/>
<path d="M60.4842 45.7204C60.5166 45.6847 62.545 47.4426 65.0134 49.6447C67.4851 51.8469 69.4618 53.6631 69.4327 53.6988C69.4003 53.7345 67.3751 51.9766 64.9002 49.7712C62.4318 47.569 60.4551 45.7561 60.4842 45.7204Z" fill="#E07646"/>
<path d="M26.2887 49.1874C26.2887 49.1874 25.124 59.2578 25.124 60.4059C25.124 61.554 26.1528 64.3075 29.0159 64.5378C31.8758 64.7681 35.5413 58.3432 35.5413 58.3432L41.494 49.2782L38.8605 44.3452L33.7134 49.489L26.2887 49.1874Z" fill="#EB996E"/>
<path d="M52.8626 41.689L45.1565 41.4749L38.8608 44.342L41.4943 49.275L46.1011 48.6036C46.1011 48.6036 48.796 48.1625 48.961 47.9971C49.2716 47.6858 49.5401 46.729 49.7278 45.8987C49.9154 45.0522 49.8216 44.1668 49.456 43.382L49.2813 43.2328C49.2813 43.2328 51.8177 42.7009 52.2383 42.516C53.2476 42.0684 52.8626 41.689 52.8626 41.689Z" fill="#EB996E"/>
<path d="M38.8611 44.342C38.8708 44.3485 38.7608 44.4814 38.5602 44.7085C38.3596 44.9387 38.062 45.2598 37.6899 45.6555C36.9458 46.4469 35.8912 47.5171 34.7136 48.6847C33.5489 49.8426 32.4943 50.8901 31.7016 51.6782C31.3361 52.0447 31.0287 52.3528 30.7926 52.5896C30.5758 52.8037 30.4529 52.9172 30.4464 52.9107C30.4367 52.9042 30.5467 52.7712 30.7473 52.5442C30.9478 52.3139 31.2455 51.9928 31.6175 51.5972C32.3616 50.8058 33.4163 49.7355 34.5971 48.5679C35.7618 47.4101 36.8164 46.3625 37.609 45.5744C37.9746 45.2079 38.282 44.8998 38.5181 44.6631C38.7284 44.449 38.8514 44.3355 38.8611 44.342Z" fill="#E07646"/>
<path d="M46.4537 43.982C46.4246 43.9528 47.0037 43.4728 47.8933 43.3009C48.7798 43.1192 49.5012 43.343 49.485 43.3787C49.4786 43.4306 48.7733 43.2911 47.9289 43.4663C47.0813 43.6284 46.4828 44.0274 46.4537 43.982Z" fill="#E07646"/>
<path d="M49.9218 44.8447C49.9056 44.8933 49.3039 44.6533 48.5339 44.7312C47.7639 44.796 47.214 45.1398 47.1913 45.0944C47.159 45.0652 47.6992 44.6339 48.521 44.5658C49.3362 44.4814 49.9477 44.809 49.9218 44.8447Z" fill="#E07646"/>
<path d="M49.4363 46.2652C49.4202 46.2847 49.3328 46.2296 49.1872 46.1744C49.0416 46.1193 48.8314 46.0836 48.5984 46.1128C48.3655 46.1452 48.1714 46.2393 48.0484 46.3301C47.9223 46.4209 47.8543 46.4955 47.8349 46.4825C47.8187 46.4728 47.8511 46.3658 47.974 46.2393C48.0937 46.1128 48.3137 45.9831 48.579 45.9474C48.8475 45.9117 49.0902 45.9766 49.2422 46.0674C49.391 46.1582 49.4493 46.2523 49.4363 46.2652Z" fill="#E07646"/>
<path d="M49.378 30.8694C51.9338 30.7203 53.9201 28.5894 53.8975 26.024C53.8846 24.4834 53.8652 23.1634 53.8652 23.1634C53.8652 23.1634 57.7635 22.5569 57.8121 18.6488C57.8606 14.7439 57.1844 5.77303 57.1844 5.77303C52.6746 3.83031 47.466 4.48545 43.5773 7.48872L43.0015 7.93305L44.3182 26.4132C44.5058 29.0338 46.7575 31.0186 49.378 30.8694Z" fill="#EB996E"/>
<path d="M53.8717 23.1051C53.8717 23.1051 51.4097 23.3061 48.7925 21.6586C48.7925 21.6586 49.9927 24.4705 53.8814 24.117L53.8717 23.1051Z" fill="#E07646"/>
<path d="M43.4802 11.9774C43.4123 11.9482 40.8015 11.1828 40.8889 13.8553C40.973 16.5245 43.6323 15.8888 43.6323 15.8142C43.6323 15.7331 43.4802 11.9774 43.4802 11.9774Z" fill="#EB996E"/>
<path d="M42.7848 14.825C42.7718 14.8152 42.7395 14.8607 42.6618 14.8963C42.5874 14.9352 42.4548 14.9612 42.3157 14.9158C42.031 14.8217 41.7786 14.3806 41.7528 13.9006C41.7366 13.6574 41.7819 13.4239 41.8628 13.2293C41.9372 13.0314 42.0601 12.892 42.1992 12.8596C42.3383 12.8239 42.4419 12.905 42.4774 12.9796C42.5163 13.0542 42.5001 13.106 42.513 13.1125C42.5195 13.119 42.568 13.0671 42.5454 12.9569C42.5324 12.905 42.5001 12.8433 42.4354 12.7914C42.3707 12.7428 42.2736 12.7169 42.1766 12.7331C41.9727 12.7525 41.7916 12.9504 41.7042 13.1612C41.6039 13.3752 41.5522 13.6379 41.5684 13.9104C41.6039 14.4488 41.8919 14.9417 42.2833 15.0423C42.471 15.0844 42.6263 15.0228 42.7071 14.9579C42.7815 14.8898 42.7945 14.8315 42.7848 14.825Z" fill="#E07646"/>
<path d="M55.9063 12.3569C55.916 12.652 55.6766 12.9017 55.3693 12.9212C55.062 12.9374 54.8064 12.7136 54.7967 12.4185C54.787 12.1233 55.0264 11.8704 55.3337 11.8542C55.6411 11.8379 55.8966 12.065 55.9063 12.3569Z" fill="#212B36"/>
<path d="M56.4466 11.2671C56.3786 11.3385 55.9548 11.0271 55.3563 11.0271C54.7578 11.0206 54.3178 11.3287 54.2531 11.2541C54.2208 11.2217 54.292 11.0887 54.4828 10.9493C54.6705 10.8098 54.994 10.6736 55.366 10.6768C55.7381 10.6801 56.0519 10.8163 56.233 10.959C56.4175 11.1017 56.4822 11.2314 56.4466 11.2671Z" fill="#212B36"/>
<path d="M49.9049 12.4282C49.9146 12.7234 49.6752 12.9731 49.3678 12.9925C49.0605 13.0088 48.8049 12.785 48.7952 12.4898C48.7855 12.1947 49.0249 11.9417 49.3322 11.9255C49.6396 11.9061 49.8952 12.1331 49.9049 12.4282Z" fill="#212B36"/>
<path d="M50.5618 11.3774C50.4939 11.4487 50.0701 11.1374 49.4716 11.1374C48.873 11.1309 48.4331 11.439 48.3684 11.3644C48.336 11.332 48.4072 11.199 48.5981 11.0595C48.7857 10.9201 49.106 10.7839 49.4813 10.7871C49.8533 10.7903 50.1671 10.9266 50.3483 11.0693C50.5327 11.212 50.5942 11.3449 50.5618 11.3774Z" fill="#212B36"/>
<path d="M52.7358 15.8304C52.7326 15.7947 53.1046 15.7331 53.7096 15.6553C53.8616 15.6391 54.0072 15.6099 54.0331 15.5028C54.0687 15.3926 54.004 15.2272 53.9296 15.0488C53.7872 14.6791 53.6352 14.2899 53.4766 13.8812C52.849 12.2207 52.3929 10.852 52.4608 10.8293C52.5287 10.8033 53.0917 12.1298 53.7193 13.7936C53.8713 14.2023 54.0137 14.5947 54.1528 14.9677C54.211 15.1428 54.3113 15.3407 54.2337 15.5677C54.1916 15.6812 54.0816 15.7655 53.9813 15.7915C53.8843 15.8207 53.7969 15.8239 53.7225 15.8272C53.1143 15.8596 52.7358 15.8628 52.7358 15.8304Z" fill="#212B36"/>
<path d="M50.9727 16.2455C51.0697 16.239 51.0697 16.8909 51.6262 17.3547C52.1826 17.8185 52.8749 17.7439 52.8782 17.838C52.8879 17.8801 52.7229 17.9645 52.4317 17.971C52.1438 17.9807 51.7265 17.8899 51.3868 17.6045C51.0471 17.3223 50.9015 16.9428 50.8789 16.6736C50.8562 16.4012 50.9274 16.2423 50.9727 16.2455Z" fill="#212B36"/>
<path d="M50.7173 9.02603C50.659 9.1882 50.0605 9.11036 49.3585 9.19793C48.6532 9.26928 48.0871 9.4736 47.9933 9.32766C47.9512 9.2563 48.0515 9.10387 48.278 8.94495C48.5044 8.78603 48.8668 8.63684 49.2906 8.59143C49.7111 8.54603 50.0994 8.61089 50.3549 8.71792C50.6105 8.81846 50.7399 8.94819 50.7173 9.02603Z" fill="#161C24"/>
<path d="M56.2265 9.52874C56.1198 9.66495 55.7089 9.52225 55.2139 9.51576C54.7189 9.49306 54.2983 9.60657 54.2013 9.46387C54.1592 9.39576 54.2239 9.25954 54.4083 9.12981C54.5895 9.00008 54.8904 8.8963 55.2333 8.90603C55.573 8.91576 55.8706 9.039 56.0421 9.18171C56.2168 9.32117 56.2718 9.46063 56.2265 9.52874Z" fill="#161C24"/>
<path d="M59.0837 3.30487C59.1258 2.82163 58.9446 2.29946 58.5531 2.0173C58.1584 1.73189 57.5502 1.75135 57.2299 2.11784C57.4144 1.46594 56.8806 0.713504 56.2076 0.671341C55.5735 0.632422 55.03 1.11243 54.4154 1.28108C53.8169 1.44648 53.1731 1.30378 52.5972 1.07026C52.0213 0.836748 51.4811 0.515664 50.8987 0.301608C49.6823 -0.142719 48.288 -0.0875838 47.1104 0.454042C45.9328 0.995668 44.9816 2.0173 44.5255 3.23352C43.6746 2.96758 42.7041 3.39893 42.18 4.12542C41.6559 4.84867 41.52 5.79895 41.6235 6.6876C41.6947 7.28761 41.8661 7.86815 42.07 8.43897C42.07 8.48762 42.0635 8.53951 42.0667 8.58816C42.1056 10.7352 42.3482 13.2585 43.2637 13.2714C44.8554 13.2974 44.4769 10.2876 44.4769 10.2876C46.431 9.52871 45.7031 6.59355 46.1916 6.14922C46.6801 5.70489 47.7024 4.66705 51.7981 6.76544C53.3866 7.5795 55.5024 7.55356 56.6541 7.29085C56.6864 7.28437 56.722 7.27788 56.7544 7.27139C56.7608 7.26815 56.7706 7.26815 56.777 7.26491C56.79 7.26166 56.7997 7.25518 56.8094 7.25193C57.1782 7.15463 57.5308 7.01193 57.8608 6.80436C58.2328 6.5676 58.5693 6.24976 58.7246 5.84111C58.8831 5.42922 58.8217 4.91678 58.5014 4.6184C58.8055 4.23894 59.0416 3.78812 59.0837 3.30487Z" fill="#161C24"/>
<path d="M139.028 132.964L97.061 132.77C92.0142 132.747 87.9411 128.628 87.9605 123.565L88.4037 18.0942C88.4264 13.0315 92.5383 8.94495 97.5884 8.96765L139.555 9.16225C144.602 9.18495 148.675 13.3039 148.655 18.3666L148.212 123.838C148.19 128.9 144.078 132.987 139.028 132.964Z" fill="#212B36"/>
<path d="M139.497 12.8044L131.36 12.7655C130.27 12.759 129.38 13.6834 129.377 14.8282L129.371 16.3072C129.367 17.452 128.478 18.3731 127.388 18.3699L111.529 18.2953C110.438 18.2888 109.559 17.358 109.562 16.2163L109.568 14.7374C109.571 13.5925 108.691 12.6617 107.601 12.6585L104.738 12.6455L97.6175 12.6131C94.0815 12.5969 91.2022 15.4574 91.186 19.0056L90.7525 121.953C90.7363 125.498 93.5897 128.382 97.1258 128.398L139.008 128.592C142.544 128.609 145.424 125.748 145.44 122.2L145.873 19.252C145.883 15.7039 143.033 12.8206 139.497 12.8044Z" fill="white"/>
<path d="M100.998 29.0824C100.998 30.1981 100.096 31.0997 98.9859 31.0997C97.873 31.0997 96.9736 30.1948 96.9736 29.0824C96.9736 27.9667 97.8762 27.0651 98.9859 27.0651C100.099 27.0651 100.998 27.9667 100.998 29.0824Z" fill="#624BFF"/>
<path d="M104.754 27.5645H138.526C139.558 27.5645 140.396 28.4046 140.396 29.4392V34.5668C140.396 35.6014 139.558 36.4414 138.526 36.4414H108.277C107.245 36.4414 106.407 35.6014 106.407 34.5668V29.0564L104.754 27.5645Z" fill="#624BFF"/>
<path d="M134.98 30.7462C134.98 30.7916 129.794 30.8305 123.398 30.8305C117.002 30.8305 111.816 30.7916 111.816 30.7462C111.816 30.7008 116.999 30.6619 123.398 30.6619C129.794 30.6619 134.98 30.7008 134.98 30.7462Z" fill="white"/>
<path d="M134.98 32.8381C134.98 32.8835 129.794 32.9224 123.398 32.9224C117.002 32.9224 111.816 32.8835 111.816 32.8381C111.816 32.7927 116.999 32.7538 123.398 32.7538C129.794 32.7538 134.98 32.7895 134.98 32.8381Z" fill="white"/>
<path d="M100.998 78.7239C100.998 79.8395 100.096 80.7412 98.9859 80.7412C97.873 80.7412 96.9736 79.8363 96.9736 78.7239C96.9736 77.6082 97.8762 76.7065 98.9859 76.7065C100.099 76.7065 100.998 77.6082 100.998 78.7239Z" fill="#624BFF"/>
<path d="M104.754 77.206H138.526C139.558 77.206 140.396 78.046 140.396 79.0806V84.2082C140.396 85.2428 139.558 86.0828 138.526 86.0828H108.277C107.245 86.0828 106.407 85.2428 106.407 84.2082V78.6979L104.754 77.206Z" fill="#624BFF"/>
<path d="M134.98 80.3877C134.98 80.4331 129.794 80.472 123.398 80.472C117.002 80.472 111.816 80.4331 111.816 80.3877C111.816 80.3423 116.999 80.3033 123.398 80.3033C129.794 80.3033 134.98 80.3423 134.98 80.3877Z" fill="white"/>
<path d="M134.98 82.4796C134.98 82.525 129.794 82.5639 123.398 82.5639C117.002 82.5639 111.816 82.525 111.816 82.4796C111.816 82.4342 116.999 82.3953 123.398 82.3953C129.794 82.3953 134.98 82.4309 134.98 82.4796Z" fill="white"/>
<path d="M136.342 46.5734C137.434 46.5734 138.319 45.6861 138.319 44.5917C138.319 43.4973 137.434 42.6101 136.342 42.6101C135.251 42.6101 134.366 43.4973 134.366 44.5917C134.366 45.6861 135.251 46.5734 136.342 46.5734Z" fill="#455A64"/>
<path d="M131.574 41.8057H99.9436C98.9763 41.8057 98.1934 42.5906 98.1934 43.5603V48.3636C98.1934 49.3334 98.9763 50.1182 99.9436 50.1182H128.274C129.241 50.1182 130.024 49.3334 130.024 48.3636V43.2036L131.574 41.8057Z" fill="#455A64"/>
<path d="M103.263 44.7863C103.263 44.7409 108.119 44.702 114.111 44.702C120.102 44.702 124.958 44.7409 124.958 44.7863C124.958 44.8317 120.102 44.8706 114.111 44.8706C108.122 44.8706 103.263 44.8349 103.263 44.7863Z" fill="white"/>
<path d="M103.263 46.7452C103.263 46.6998 108.119 46.6609 114.111 46.6609C120.102 46.6609 124.958 46.6998 124.958 46.7452C124.958 46.7906 120.102 46.8295 114.111 46.8295C108.122 46.8295 103.263 46.7906 103.263 46.7452Z" fill="white"/>
<path d="M96.9736 58.5637C96.9736 59.6794 97.8762 60.581 98.9859 60.581C100.099 60.581 100.998 59.6761 100.998 58.5637C100.998 57.448 100.096 56.5464 98.9859 56.5464C97.8762 56.5464 96.9736 57.4513 96.9736 58.5637Z" fill="#212B36"/>
<path d="M106.009 55.6415H137.639C138.607 55.6415 139.39 56.4264 139.39 57.3961V62.1994C139.39 63.1691 138.607 63.954 137.639 63.954H109.309C108.342 63.954 107.559 63.1691 107.559 62.1994V57.0394L106.009 55.6415Z" fill="#212B36"/>
<path d="M134.318 58.6221C134.318 58.6675 129.462 58.7064 123.47 58.7064C117.479 58.7064 112.623 58.6675 112.623 58.6221C112.623 58.5767 117.479 58.5378 123.47 58.5378C129.462 58.5378 134.318 58.5767 134.318 58.6221Z" fill="white"/>
<path d="M134.318 60.581C134.318 60.6264 129.462 60.6653 123.47 60.6653C117.479 60.6653 112.623 60.6264 112.623 60.581C112.623 60.5356 117.479 60.4967 123.47 60.4967C129.462 60.4967 134.318 60.5356 134.318 60.581Z" fill="white"/>
<path d="M136.843 73.246H129.212C128.497 73.246 127.921 72.6654 127.921 71.9519V69.1854C127.921 68.4686 128.5 67.8913 129.212 67.8913H136.843C137.558 67.8913 138.134 68.4719 138.134 69.1854V71.9519C138.134 72.6654 137.555 73.246 136.843 73.246Z" fill="#212B36"/>
<path d="M136.316 70.5703C136.316 70.6157 134.973 70.6546 133.317 70.6546C131.66 70.6546 130.318 70.6157 130.318 70.5703C130.318 70.5249 131.66 70.486 133.317 70.486C134.973 70.4827 136.316 70.5216 136.316 70.5703Z" fill="white"/>
<path d="M99.6163 103.493H94.6147V108.507H99.6163V103.493Z" fill="#DFE3E8"/>
<path d="M105.566 103.493H100.564V108.507H105.566V103.493Z" fill="#DFE3E8"/>
<path d="M111.519 103.493H106.517V108.507H111.519V103.493Z" fill="#DFE3E8"/>
<path d="M117.468 103.493H112.467V108.507H117.468V103.493Z" fill="#DFE3E8"/>
<path d="M123.418 103.493H118.416V108.507H123.418V103.493Z" fill="#DFE3E8"/>
<path d="M99.8428 115.866H94.6147V121.107H99.8428V115.866Z" fill="#DFE3E8"/>
<path d="M126.061 115.879H100.836V121.12H126.061V115.879Z" fill="#DFE3E8"/>
<path d="M141.331 102.036C141.331 102.036 141.328 101.907 141.324 101.657C141.321 101.404 141.318 101.034 141.315 100.551C141.308 99.5749 141.302 98.1381 141.292 96.2635L141.331 96.3024C132.874 96.3121 115.12 96.3284 94.6183 96.3478H94.6151L94.6992 96.2635C94.6992 98.2419 94.6992 100.194 94.6992 102.036L94.6151 101.952C107.756 101.965 119.426 101.978 127.808 101.988C132.004 101.998 135.378 102.007 137.707 102.014C138.869 102.02 139.771 102.024 140.386 102.027C140.69 102.03 140.923 102.03 141.085 102.033C141.247 102.033 141.331 102.036 141.331 102.036C141.331 102.036 141.256 102.04 141.101 102.043C140.943 102.043 140.713 102.046 140.415 102.049C139.804 102.053 138.908 102.056 137.753 102.062C135.427 102.069 132.059 102.075 127.873 102.088C119.471 102.098 107.785 102.111 94.6183 102.124H94.5342V102.04C94.5342 100.198 94.5342 98.2451 94.5342 96.2667V96.1824H94.6183H94.6215C115.123 96.2019 132.877 96.2213 141.334 96.2278H141.373V96.2667C141.363 98.1478 141.357 99.5943 141.35 100.574C141.347 101.054 141.344 101.42 141.341 101.673C141.334 101.917 141.331 102.036 141.331 102.036Z" fill="#212B36"/>
<path d="M138.08 99.6721H137.84C137.575 99.6721 137.361 99.4581 137.361 99.1921V97.7683C137.361 97.5024 137.575 97.2883 137.84 97.2883H138.08C138.345 97.2883 138.558 97.5024 138.558 97.7683V99.1921C138.558 99.4581 138.345 99.6721 138.08 99.6721Z" fill="#624BFF"/>
<path d="M139.409 99.2019C139.409 99.2181 139.27 99.2375 139.027 99.2505L139.076 99.2051C139.063 99.4062 139.011 99.6754 138.833 99.9478C138.743 100.081 138.616 100.211 138.448 100.295C138.283 100.382 138.086 100.408 137.892 100.402C137.51 100.395 137.183 100.165 137.009 99.9154C136.831 99.6624 136.75 99.4127 136.714 99.2116L136.763 99.2538C136.485 99.2408 136.323 99.2213 136.323 99.2019C136.323 99.1824 136.485 99.1662 136.763 99.15L136.802 99.1467L136.815 99.1889C136.863 99.364 136.96 99.6008 137.128 99.8213C137.297 100.039 137.568 100.223 137.902 100.23C138.07 100.236 138.238 100.214 138.377 100.146C138.516 100.078 138.626 99.9738 138.71 99.8602C138.879 99.63 138.946 99.377 138.979 99.1954L138.989 99.15L139.027 99.1532C139.27 99.1662 139.409 99.1824 139.409 99.2019Z" fill="#624BFF"/>
<path d="M137.96 100.321C138.005 100.321 138.044 100.486 138.044 100.687C138.044 100.892 138.005 101.054 137.96 101.054C137.914 101.054 137.875 100.888 137.875 100.687C137.875 100.486 137.914 100.321 137.96 100.321Z" fill="#624BFF"/>
<path d="M132.14 115.866H126.912V121.107H132.14V115.866Z" fill="#DFE3E8"/>
<path d="M141.328 115.866H133.13V121.107H141.328V115.866Z" fill="#624BFF"/>
<path d="M129.429 103.493H124.427V108.507H129.429V103.493Z" fill="#DFE3E8"/>
<path d="M135.378 103.493H130.376V108.507H135.378V103.493Z" fill="#DFE3E8"/>
<path d="M141.328 103.493H136.326V108.507H141.328V103.493Z" fill="#DFE3E8"/>
<path d="M99.6163 109.678H94.6147V114.692H99.6163V109.678Z" fill="#DFE3E8"/>
<path d="M105.566 109.678H100.564V114.692H105.566V109.678Z" fill="#DFE3E8"/>
<path d="M111.519 109.678H106.517V114.692H111.519V109.678Z" fill="#DFE3E8"/>
<path d="M117.468 109.678H112.467V114.692H117.468V109.678Z" fill="#DFE3E8"/>
<path d="M123.418 109.678H118.416V114.692H123.418V109.678Z" fill="#DFE3E8"/>
<path d="M129.429 109.678H124.427V114.692H129.429V109.678Z" fill="#DFE3E8"/>
<path d="M135.378 109.678H130.376V114.692H135.378V109.678Z" fill="#DFE3E8"/>
<path d="M141.328 109.678H136.326V114.692H141.328V109.678Z" fill="#DFE3E8"/>
<path d="M117.022 91.9272C117.019 92.4007 116.631 92.7834 116.155 92.7802C115.679 92.777 115.291 92.391 115.294 91.9175C115.298 91.444 115.686 91.0613 116.161 91.0645C116.637 91.0645 117.025 91.4505 117.022 91.9272Z" fill="#624BFF"/>
<path d="M119.701 91.937C119.698 92.4105 119.309 92.7932 118.834 92.79C118.358 92.7867 117.97 92.4008 117.973 91.9273C117.976 91.4537 118.365 91.071 118.84 91.0743C119.316 91.0775 119.701 91.4635 119.701 91.937Z" fill="#624BFF"/>
<path d="M122.376 91.9499C122.373 92.4234 121.985 92.8061 121.509 92.8029C121.03 92.7997 120.645 92.4137 120.648 91.9402C120.652 91.4667 121.04 91.084 121.515 91.0872C121.994 91.0905 122.379 91.4764 122.376 91.9499Z" fill="#624BFF"/>
</g>
<defs>
<clipPath id="clip0_1476_11621">
<rect width="220.709" height="139" fill="white" transform="translate(0.145508)"/>
</clipPath>
</defs>
</svg>
